<svg width="26" height="26" viewBox="0 0 26 26" fill="none" xmlns="http://www.w3.org/2000/svg">
<path d="M13 17C15.2091 17 17 15.2091 17 13C17 10.7909 15.2091 9 13 9C10.7909 9 9 10.7909 9 13C9 15.2091 10.7909 17 13 17Z" stroke="#6F56F5" stroke-linecap="round" stroke-linejoin="round"/>
<path d="M18.5297 21.332C16.6733 22.564 14.4587 23.1408 12.2372 22.9709C10.0157 22.8009 7.91459 21.8939 6.26724 20.3939C4.61988 18.8938 3.52066 16.8866 3.14397 14.6907C2.76729 12.4948 3.13472 10.236 4.18798 8.27264C5.24123 6.30932 6.91997 4.75397 8.95783 3.85338C10.9957 2.95279 13.2759 2.75853 15.4368 3.30144C17.5976 3.84435 19.5152 5.09332 20.8854 6.85018C22.2556 8.60705 22.9998 10.7712 23 12.9992C23 15.3001 22.1667 17.1655 20.0836 17.1655C19.151 17.1655 18.469 16.7917 18 16.1723" stroke="#333249" stroke-linecap="round" stroke-linejoin="round"/>
</svg>
