<svg width="26" height="26" viewBox="0 0 26 26" fill="none" xmlns="http://www.w3.org/2000/svg">
<path d="M3 23H23" stroke="#333249" stroke-linecap="round" stroke-linejoin="round"/>
<path d="M15 23V3.86956C15 3.63894 14.9172 3.41776 14.7699 3.25469C14.6225 3.09161 14.4227 3 14.2143 3H4.78571C4.57733 3 4.37748 3.09161 4.23013 3.25469C4.08278 3.41776 4 3.63894 4 3.86956V23" stroke="#333249" stroke-linecap="round" stroke-linejoin="round"/>
<path d="M22 23V11.8C22 11.5878 21.9263 11.3843 21.795 11.2343C21.6637 11.0843 21.4857 11 21.3 11H15" stroke="#333249" stroke-linecap="round" stroke-linejoin="round"/>
<path d="M7 8L12 8" stroke="#6F56F5" stroke-linecap="round" stroke-linejoin="round"/>
<path d="M8 15H12" stroke="#6F56F5" stroke-linecap="round" stroke-linejoin="round"/>
<path d="M7 19L9.99999 18.9936" stroke="#6F56F5" stroke-linecap="round" stroke-linejoin="round"/>
<path d="M18 19L20 19" stroke="#6F56F5" stroke-linecap="round" stroke-linejoin="round"/>
<path d="M17 15L19 15" stroke="#6F56F5" stroke-linecap="round" stroke-linejoin="round"/>
</svg>
