<svg xmlns="http://www.w3.org/2000/svg" xmlns:xlink="http://www.w3.org/1999/xlink" id="Layer_1" data-name="Layer 1" viewBox="0 0 382 500.36"><defs><style>.cls-1{fill:#fff;}.cls-2{fill:#8d0200;}.cls-3{fill:url(#radial-gradient);}.cls-4{fill:url(#radial-gradient-2);}.cls-5{fill:url(#radial-gradient-3);}.cls-6{fill:url(#radial-gradient-4);}.cls-7{fill:url(#radial-gradient-5);}.cls-8{fill:url(#radial-gradient-6);}.cls-9{fill:url(#radial-gradient-7);}.cls-10{fill:url(#radial-gradient-8);}.cls-11{fill:url(#radial-gradient-9);}.cls-12{fill:url(#radial-gradient-10);}.cls-13{fill:url(#radial-gradient-11);}.cls-14{fill:url(#radial-gradient-12);}.cls-15{fill:url(#radial-gradient-13);}.cls-16{fill:url(#radial-gradient-14);}.cls-17{fill:url(#radial-gradient-15);}.cls-18{fill:url(#radial-gradient-16);}.cls-19{fill:url(#radial-gradient-17);}.cls-20{fill:url(#radial-gradient-18);}.cls-21{fill:url(#radial-gradient-19);}</style><radialGradient id="radial-gradient" cx="190.92" cy="423.53" r="117.83" gradientUnits="userSpaceOnUse"><stop offset="0" stop-color="#c60600"></stop><stop offset="1" stop-color="#930600"></stop></radialGradient><radialGradient id="radial-gradient-2" cx="190.92" cy="390.03" r="117.83" xlink:href="#radial-gradient"></radialGradient><radialGradient id="radial-gradient-3" cx="190.92" cy="356.53" r="117.83" xlink:href="#radial-gradient"></radialGradient><radialGradient id="radial-gradient-4" cx="-190.78" cy="91.64" r="27.88" gradientTransform="translate(826.44 121.31) scale(0.87)" xlink:href="#radial-gradient"></radialGradient><radialGradient id="radial-gradient-5" cx="546.39" cy="244.73" r="7.95" xlink:href="#radial-gradient"></radialGradient><radialGradient id="radial-gradient-6" cx="561.51" cy="246.73" r="8.14" xlink:href="#radial-gradient"></radialGradient><radialGradient id="radial-gradient-7" cx="579.54" cy="246.73" r="8.11" xlink:href="#radial-gradient"></radialGradient><radialGradient id="radial-gradient-8" cx="598.26" cy="244.02" r="9.44" xlink:href="#radial-gradient"></radialGradient><radialGradient id="radial-gradient-9" cx="614.65" cy="246.61" r="6.75" xlink:href="#radial-gradient"></radialGradient><radialGradient id="radial-gradient-10" cx="629.01" cy="246.73" r="8.14" xlink:href="#radial-gradient"></radialGradient><radialGradient id="radial-gradient-11" cx="646.91" cy="246.73" r="8.28" xlink:href="#radial-gradient"></radialGradient><radialGradient id="radial-gradient-12" cx="659.73" cy="243.29" r="8.33" xlink:href="#radial-gradient"></radialGradient><radialGradient id="radial-gradient-13" cx="672.68" cy="246.73" r="8.14" xlink:href="#radial-gradient"></radialGradient><radialGradient id="radial-gradient-14" cx="694.31" cy="246.73" r="10.45" xlink:href="#radial-gradient"></radialGradient><radialGradient id="radial-gradient-15" cx="715.92" cy="246.73" r="8.14" xlink:href="#radial-gradient"></radialGradient><radialGradient id="radial-gradient-16" cx="731.74" cy="246.61" r="6.75" xlink:href="#radial-gradient"></radialGradient><radialGradient id="radial-gradient-17" cx="740.11" cy="252.65" r="2.18" xlink:href="#radial-gradient"></radialGradient><radialGradient id="radial-gradient-18" cx="752.19" cy="246.73" r="8.11" xlink:href="#radial-gradient"></radialGradient><radialGradient id="radial-gradient-19" cx="770.5" cy="246.73" r="8.27" xlink:href="#radial-gradient"></radialGradient></defs><title>DevOps</title><polygon class="cls-1" points="377 5 5 5 5 423 5 423.44 191 495 377 423.44 377 423 377 5"></polygon><path class="cls-2" d="M660.08,646.36l-191-73.48V146h382V572.88ZM479.08,566l181,69.63,181-69.63V156h-362Z" transform="translate(-469.08 -146)"></path><polygon class="cls-3" points="29.92 380.56 29.92 404.18 29.92 404.56 190.92 466.5 351.92 404.56 351.92 404.18 351.92 380.56 190.92 442.5 29.92 380.56"></polygon><polygon class="cls-4" points="29.92 347.06 29.92 370.68 29.92 371.06 190.92 433 351.92 371.06 351.92 370.68 351.92 347.06 190.92 409 29.92 347.06"></polygon><polygon class="cls-5" points="29.92 313.56 29.92 337.18 29.92 337.56 190.92 399.5 351.92 337.56 351.92 337.18 351.92 313.56 190.92 375.5 29.92 313.56"></polygon><path class="cls-6" d="M651.58,193.1s-16.89,2.2-17.08,2.78,12.19,12.28,12.19,12.28-3.13,16.75-2.64,17.1,15.45-7.79,15.45-7.79,15,8.15,15.44,7.79-2.63-17.1-2.63-17.1,12.38-11.7,12.19-12.28-17.08-2.78-17.08-2.78-7.32-15.38-7.92-15.38S651.58,193.1,651.58,193.1Z" transform="translate(-469.08 -146)"></path><path d="M638.75,289.2v7.61H628v32h-9.63v-32H607.73V289.2Z" transform="translate(-469.08 -146)"></path><path d="M671.76,291.19a19,19,0,0,1,7.2,7.22,22,22,0,0,1,0,20.92,19.21,19.21,0,0,1-7.23,7.25,20.94,20.94,0,0,1-20.21,0,19.28,19.28,0,0,1-7.23-7.25,21.9,21.9,0,0,1,0-20.92,19.2,19.2,0,0,1,7.23-7.22,21,21,0,0,1,20.27,0Zm-17.64,9.35q-2.77,3-2.77,8.31a11.9,11.9,0,0,0,2.77,8.29,10.57,10.57,0,0,0,14.92,0,13.73,13.73,0,0,0,0-16.58,10.64,10.64,0,0,0-15,0Z" transform="translate(-469.08 -146)"></path><path d="M696.54,314.9v13.89H687V289.2h15.52q7,0,10.75,3.5a12.38,12.38,0,0,1,3.69,9.43,13,13,0,0,1-1.65,6.58,11.38,11.38,0,0,1-4.9,4.54,17.26,17.26,0,0,1-7.89,1.65Zm10.64-12.77q0-5.2-5.77-5.2h-4.87v10.3h4.87Q707.19,307.23,707.18,302.13Z" transform="translate(-469.08 -146)"></path><path d="M506.2,374.14a11.22,11.22,0,0,1-4.61,4.52,14.67,14.67,0,0,1-7.07,1.62h-9.61V354.82h9.61a14.87,14.87,0,0,1,7.09,1.59,11,11,0,0,1,4.59,4.46,14.56,14.56,0,0,1,0,13.27Zm-6.62-1.28a8.2,8.2,0,0,0,0-10.73,7.79,7.79,0,0,0-5.6-1.91h-2.92v14.55H494A7.79,7.79,0,0,0,499.58,372.86Z" transform="translate(-469.08 -146)"></path><path d="M530.2,371.35H516.26a4.68,4.68,0,0,0,1.16,3.26,3.7,3.7,0,0,0,2.66,1,3.63,3.63,0,0,0,2.27-.69,3.21,3.21,0,0,0,1.19-1.76h6.51a8.51,8.51,0,0,1-1.73,3.8,9.1,9.1,0,0,1-3.38,2.62,10.66,10.66,0,0,1-4.57,1,10.88,10.88,0,0,1-5.24-1.24,8.9,8.9,0,0,1-3.58-3.59,11,11,0,0,1-1.3-5.47,11.25,11.25,0,0,1,1.28-5.49,8.77,8.77,0,0,1,3.58-3.56,11.84,11.84,0,0,1,10.51,0,8.56,8.56,0,0,1,3.51,3.44,10.19,10.19,0,0,1,1.25,5.09A8.48,8.48,0,0,1,530.2,371.35Zm-7.11-5.56a3.94,3.94,0,0,0-2.72-1,4,4,0,0,0-2.81,1,4.28,4.28,0,0,0-1.26,3h7.85A3.72,3.72,0,0,0,523.09,365.79Z" transform="translate(-469.08 -146)"></path><path d="M542.87,374.26l4.35-14.07h6.55l-7.12,20.09H539l-7.13-20.09h6.55Z" transform="translate(-469.08 -146)"></path><path d="M575,356.1a12.24,12.24,0,0,1,4.63,4.65,14.13,14.13,0,0,1,0,13.44,12.24,12.24,0,0,1-4.65,4.66,13.4,13.4,0,0,1-13,0,12.15,12.15,0,0,1-4.64-4.66,14.06,14.06,0,0,1,0-13.44,12.26,12.26,0,0,1,4.64-4.65,13.54,13.54,0,0,1,13,0Zm-11.34,6a8.9,8.9,0,0,0,0,10.68,6.8,6.8,0,0,0,9.59,0,7.59,7.59,0,0,0,1.81-5.33,7.67,7.67,0,0,0-1.79-5.33,6.84,6.84,0,0,0-9.61,0Z" transform="translate(-469.08 -146)"></path><path d="M601.71,361.18a8.44,8.44,0,0,1,3.09,3.56,13.74,13.74,0,0,1,0,11,8.47,8.47,0,0,1-3.09,3.59,8.21,8.21,0,0,1-4.45,1.24,7.27,7.27,0,0,1-4-1,6,6,0,0,1-2.41-2.84v13.21h-6.16V360.19h6.16v3.63A6.07,6.07,0,0,1,593.3,361a7.26,7.26,0,0,1,4-1A8.13,8.13,0,0,1,601.71,361.18Zm-9.61,5.47a5.72,5.72,0,0,0,0,7.14,4.5,4.5,0,0,0,6.37,0,6,6,0,0,0,0-7.2,4.53,4.53,0,0,0-6.37,0Z" transform="translate(-469.08 -146)"></path><path d="M622.55,361.84a8.26,8.26,0,0,1,2.86,5h-5.76a3.15,3.15,0,0,0-1.13-1.92,3.44,3.44,0,0,0-2.21-.7,2.43,2.43,0,0,0-1.59.45,1.56,1.56,0,0,0-.54,1.27,1.5,1.5,0,0,0,1,1.41,15.86,15.86,0,0,0,3.12.93,31.91,31.91,0,0,1,3.78,1.1,6.23,6.23,0,0,1,2.55,1.82,5,5,0,0,1,1.08,3.38,5.18,5.18,0,0,1-.93,3.06,6.19,6.19,0,0,1-2.7,2.09,10.47,10.47,0,0,1-4.18.76,10.79,10.79,0,0,1-6.52-1.8,7.6,7.6,0,0,1-3-5.15h5.94a2.68,2.68,0,0,0,1.09,2,4.12,4.12,0,0,0,2.47.68,2.3,2.3,0,0,0,1.58-.48,1.65,1.65,0,0,0,.54-1.28,1.53,1.53,0,0,0-1-1.49,18.36,18.36,0,0,0-3.22-1,25.37,25.37,0,0,1-3.67-1,6,6,0,0,1-2.48-1.74,4.86,4.86,0,0,1-1-3.3,5.39,5.39,0,0,1,2-4.37,8.93,8.93,0,0,1,5.8-1.67A9.22,9.22,0,0,1,622.55,361.84Z" transform="translate(-469.08 -146)"></path><path d="M656,357.13a11.74,11.74,0,0,1,4.12,6.91H653.6a6,6,0,0,0-2.21-2.77,6.22,6.22,0,0,0-3.55-1,5.38,5.38,0,0,0-4.35,2,9.24,9.24,0,0,0,0,10.57,5.43,5.43,0,0,0,4.35,2,6.22,6.22,0,0,0,3.55-1A6,6,0,0,0,653.6,371h6.52a11.83,11.83,0,0,1-4.12,6.9,12.45,12.45,0,0,1-8,2.57,12.66,12.66,0,0,1-6.52-1.64,11.09,11.09,0,0,1-4.33-4.59,15.57,15.57,0,0,1,0-13.46,11.09,11.09,0,0,1,4.33-4.59,12.76,12.76,0,0,1,6.52-1.64A12.44,12.44,0,0,1,656,357.13Z" transform="translate(-469.08 -146)"></path><path d="M678.32,361.18a9.11,9.11,0,0,1,3.7,3.58,11.76,11.76,0,0,1,0,10.94,9.13,9.13,0,0,1-3.7,3.59,12.18,12.18,0,0,1-10.71,0,9.08,9.08,0,0,1-3.73-3.59,11.76,11.76,0,0,1,0-10.94,9.06,9.06,0,0,1,3.73-3.58,12.18,12.18,0,0,1,10.71,0ZM670,366.54a5.19,5.19,0,0,0-1.21,3.69A5.12,5.12,0,0,0,670,373.9a3.94,3.94,0,0,0,3,1.26,3.89,3.89,0,0,0,2.95-1.26,5.16,5.16,0,0,0,1.19-3.67,5.23,5.23,0,0,0-1.19-3.69,3.88,3.88,0,0,0-2.95-1.28A3.92,3.92,0,0,0,670,366.54Z" transform="translate(-469.08 -146)"></path><path d="M704.81,362.28a9.19,9.19,0,0,1,2,6.33v11.67h-6.15V369.33a4.48,4.48,0,0,0-1.06-3.15,3.71,3.71,0,0,0-2.83-1.13,3.81,3.81,0,0,0-3,1.19,4.81,4.81,0,0,0-1.1,3.38v10.66h-6.15V360.19h6.15v3.67a6.62,6.62,0,0,1,2.58-2.84,7.52,7.52,0,0,1,4-1A6.94,6.94,0,0,1,704.81,362.28Z" transform="translate(-469.08 -146)"></path><path d="M724.32,361.84a8.32,8.32,0,0,1,2.87,5h-5.77a3.15,3.15,0,0,0-1.13-1.92,3.44,3.44,0,0,0-2.21-.7,2.43,2.43,0,0,0-1.59.45A1.56,1.56,0,0,0,716,366a1.5,1.5,0,0,0,1,1.41,15.86,15.86,0,0,0,3.12.93,31.91,31.91,0,0,1,3.78,1.1,6.23,6.23,0,0,1,2.55,1.82,5,5,0,0,1,1.08,3.38,5.18,5.18,0,0,1-.93,3.06,6.19,6.19,0,0,1-2.7,2.09,10.47,10.47,0,0,1-4.18.76,10.73,10.73,0,0,1-6.51-1.8,7.58,7.58,0,0,1-3-5.15h5.94a2.66,2.66,0,0,0,1.1,2,4.07,4.07,0,0,0,2.46.68,2.34,2.34,0,0,0,1.59-.48,1.65,1.65,0,0,0,.54-1.28,1.52,1.52,0,0,0-1-1.49,18.36,18.36,0,0,0-3.22-1,25.37,25.37,0,0,1-3.67-1,6,6,0,0,1-2.48-1.74,4.86,4.86,0,0,1-1-3.3,5.39,5.39,0,0,1,2-4.37,8.93,8.93,0,0,1,5.8-1.67A9.22,9.22,0,0,1,724.32,361.84Z" transform="translate(-469.08 -146)"></path><path d="M750.87,360.19v20.09h-6.19v-3.64a6.7,6.7,0,0,1-2.57,2.81,7.55,7.55,0,0,1-4,1,7,7,0,0,1-5.49-2.3,9.24,9.24,0,0,1-2-6.34V360.19h6.12V371.1a4.46,4.46,0,0,0,1.07,3.18,3.71,3.71,0,0,0,2.86,1.14,3.79,3.79,0,0,0,3-1.19,4.86,4.86,0,0,0,1.08-3.39V360.19Z" transform="translate(-469.08 -146)"></path><path d="M761.28,353.64v26.64h-6.16V353.64Z" transform="translate(-469.08 -146)"></path><path d="M776.9,375v5.3h-2.77a8,8,0,0,1-5.49-1.75q-2-1.74-2-5.78v-7.38H764v-5.18h2.7v-4.93h6.15v4.93h4v5.18h-4v7.49a2.26,2.26,0,0,0,.49,1.66A2.33,2.33,0,0,0,775,375Z" transform="translate(-469.08 -146)"></path><path d="M780.79,352.21a3.81,3.81,0,0,1,2.66-.92,3.85,3.85,0,0,1,2.67.92,3,3,0,0,1,1,2.33,3,3,0,0,1-1,2.28,3.85,3.85,0,0,1-2.67.92,3.81,3.81,0,0,1-2.66-.92,3,3,0,0,1-1-2.28A3,3,0,0,1,780.79,352.21Zm5.72,8v20.09h-6.15V360.19Z" transform="translate(-469.08 -146)"></path><path d="M809,362.28a9.19,9.19,0,0,1,2,6.33v11.67h-6.16V369.33a4.43,4.43,0,0,0-1.06-3.15,3.71,3.71,0,0,0-2.83-1.13,3.81,3.81,0,0,0-3,1.19,4.8,4.8,0,0,0-1.09,3.38v10.66h-6.16V360.19h6.16v3.67a6.54,6.54,0,0,1,2.57-2.84,7.52,7.52,0,0,1,4-1A6.93,6.93,0,0,1,809,362.28Z" transform="translate(-469.08 -146)"></path><path d="M826.69,361a6.25,6.25,0,0,1,2.44,2.84v-3.63h6.12v20a11.56,11.56,0,0,1-1.08,5.06,8.27,8.27,0,0,1-3.31,3.58,10.62,10.62,0,0,1-5.54,1.33,11.46,11.46,0,0,1-7.26-2.14,8.73,8.73,0,0,1-3.25-5.82h6.08a3,3,0,0,0,1.32,1.91,4.69,4.69,0,0,0,2.68.69,4.31,4.31,0,0,0,3.07-1.1,4.61,4.61,0,0,0,1.17-3.51v-3.53a6.2,6.2,0,0,1-2.44,2.84,7.27,7.27,0,0,1-4,1,8.21,8.21,0,0,1-4.45-1.24,8.55,8.55,0,0,1-3.1-3.59,13.85,13.85,0,0,1,0-11,8.53,8.53,0,0,1,3.1-3.56,8.13,8.13,0,0,1,4.45-1.24A7.26,7.26,0,0,1,826.69,361Zm-5.17,5.65a6,6,0,0,0,0,7.2,4.5,4.5,0,0,0,6.37,0,5.76,5.76,0,0,0,0-7.14,4.53,4.53,0,0,0-6.37,0Z" transform="translate(-469.08 -146)"></path><path d="M574.8,399.13a11.69,11.69,0,0,1,4.12,6.91H572.4a5.91,5.91,0,0,0-2.21-2.77,6.22,6.22,0,0,0-3.55-1,5.38,5.38,0,0,0-4.35,2,9.24,9.24,0,0,0,0,10.57,5.43,5.43,0,0,0,4.35,2,6.22,6.22,0,0,0,3.55-1A5.93,5.93,0,0,0,572.4,413h6.52a11.78,11.78,0,0,1-4.12,6.9,12.45,12.45,0,0,1-8,2.57,12.6,12.6,0,0,1-6.51-1.64,11,11,0,0,1-4.34-4.59,15.57,15.57,0,0,1,0-13.46,11,11,0,0,1,4.34-4.59,12.69,12.69,0,0,1,6.51-1.64A12.44,12.44,0,0,1,574.8,399.13Z" transform="translate(-469.08 -146)"></path><path d="M597.12,403.18a9.13,9.13,0,0,1,3.71,3.58,11.76,11.76,0,0,1,0,10.94,9.15,9.15,0,0,1-3.71,3.59,12.18,12.18,0,0,1-10.71,0,9.08,9.08,0,0,1-3.73-3.59,11.76,11.76,0,0,1,0-10.94,9.06,9.06,0,0,1,3.73-3.58,12.18,12.18,0,0,1,10.71,0Zm-8.32,5.36a5.19,5.19,0,0,0-1.2,3.69,5.12,5.12,0,0,0,1.2,3.67,4,4,0,0,0,3,1.26,3.88,3.88,0,0,0,3-1.26,5.12,5.12,0,0,0,1.19-3.67,5.18,5.18,0,0,0-1.19-3.69,3.86,3.86,0,0,0-3-1.28A4,4,0,0,0,588.8,408.54Z" transform="translate(-469.08 -146)"></path><path d="M637.24,404.26a8.94,8.94,0,0,1,2.12,6.35v11.67h-6.12V411.33a4.12,4.12,0,0,0-1-3,3.71,3.71,0,0,0-2.79-1.06,3.8,3.8,0,0,0-2.9,1.13,4.49,4.49,0,0,0-1.06,3.19v10.66h-6.16V411.33a4.11,4.11,0,0,0-1-3,3.62,3.62,0,0,0-2.77-1.06,3.84,3.84,0,0,0-2.91,1.12,4.41,4.41,0,0,0-1.08,3.2v10.66h-6.16V402.19h6.16v3.42a5.92,5.92,0,0,1,2.43-2.67,7.34,7.34,0,0,1,3.83-1,7.81,7.81,0,0,1,4.07,1.06,6.73,6.73,0,0,1,2.66,3.05,8,8,0,0,1,2.86-3,8.24,8.24,0,0,1,9.85,1.17Z" transform="translate(-469.08 -146)"></path><path d="M660.44,403.18a8.53,8.53,0,0,1,3.1,3.56,13.85,13.85,0,0,1,0,11,8.55,8.55,0,0,1-3.1,3.59,8.2,8.2,0,0,1-4.44,1.24,7.22,7.22,0,0,1-4-1,6,6,0,0,1-2.42-2.84v13.21h-6.15V402.19h6.15v3.63A6.09,6.09,0,0,1,652,403a7.22,7.22,0,0,1,4-1A8.12,8.12,0,0,1,660.44,403.18Zm-9.61,5.47a5.76,5.76,0,0,0,0,7.14,4.17,4.17,0,0,0,3.19,1.34,4.11,4.11,0,0,0,3.18-1.3,6,6,0,0,0,0-7.2,4.53,4.53,0,0,0-6.37,0Z" transform="translate(-469.08 -146)"></path><path d="M679.47,403a6.33,6.33,0,0,1,2.45,2.84v-3.63H688v20.09h-6.12v-3.64a6.28,6.28,0,0,1-2.45,2.84,7.27,7.27,0,0,1-4,1,8.21,8.21,0,0,1-4.45-1.24A8.47,8.47,0,0,1,668,417.7a13.74,13.74,0,0,1,0-11,8.44,8.44,0,0,1,3.09-3.56,8.13,8.13,0,0,1,4.45-1.24A7.26,7.26,0,0,1,679.47,403Zm-5.17,5.65a6,6,0,0,0,0,7.2,4.5,4.5,0,0,0,6.37,0,5.72,5.72,0,0,0,0-7.14,4.53,4.53,0,0,0-6.37,0Z" transform="translate(-469.08 -146)"></path><path d="M710.52,404.28a9.24,9.24,0,0,1,2,6.33v11.67H706.4V411.33a4.44,4.44,0,0,0-1.07-3.15,3.71,3.71,0,0,0-2.82-1.13,3.81,3.81,0,0,0-3,1.19,4.76,4.76,0,0,0-1.1,3.38v10.66h-6.16V402.19h6.16v3.67A6.6,6.6,0,0,1,701,403a7.53,7.53,0,0,1,4-1A7,7,0,0,1,710.52,404.28Z" transform="translate(-469.08 -146)"></path><path d="M717.05,394.21a4.32,4.32,0,0,1,5.33,0,3,3,0,0,1,1,2.33,3,3,0,0,1-1,2.28,4.32,4.32,0,0,1-5.33,0,3,3,0,0,1-1-2.28A3,3,0,0,1,717.05,394.21Zm5.73,8v20.09h-6.16V402.19Z" transform="translate(-469.08 -146)"></path><path d="M745.92,413.35H732a4.68,4.68,0,0,0,1.15,3.26,3.74,3.74,0,0,0,2.67,1,3.6,3.6,0,0,0,2.26-.69,3.16,3.16,0,0,0,1.19-1.76h6.52a8.62,8.62,0,0,1-1.73,3.8,9.26,9.26,0,0,1-3.38,2.62,10.7,10.7,0,0,1-4.58,1,10.86,10.86,0,0,1-5.23-1.24,8.93,8.93,0,0,1-3.59-3.59,12.33,12.33,0,0,1,0-11,8.71,8.71,0,0,1,3.58-3.56,11.84,11.84,0,0,1,10.51,0,8.68,8.68,0,0,1,3.51,3.44,10.18,10.18,0,0,1,1.24,5.09A8.48,8.48,0,0,1,745.92,413.35Zm-7.11-5.56a3.92,3.92,0,0,0-2.72-1,4,4,0,0,0-2.8,1,4.2,4.2,0,0,0-1.26,3h7.84A3.69,3.69,0,0,0,738.81,407.79Z" transform="translate(-469.08 -146)"></path><path d="M762.72,403.84a8.35,8.35,0,0,1,2.86,5h-5.76a3.21,3.21,0,0,0-1.14-1.92,3.4,3.4,0,0,0-2.21-.7,2.4,2.4,0,0,0-1.58.45,1.56,1.56,0,0,0-.54,1.27,1.5,1.5,0,0,0,1,1.41,15.72,15.72,0,0,0,3.11.93,30.82,30.82,0,0,1,3.78,1.1,6.26,6.26,0,0,1,2.56,1.82,5,5,0,0,1,1.08,3.38,5.19,5.19,0,0,1-.94,3.06,6.08,6.08,0,0,1-2.7,2.09,10.47,10.47,0,0,1-4.18.76,10.73,10.73,0,0,1-6.51-1.8,7.61,7.61,0,0,1-3-5.15h5.94a2.69,2.69,0,0,0,1.1,2,4.09,4.09,0,0,0,2.46.68,2.32,2.32,0,0,0,1.59-.48,1.65,1.65,0,0,0,.54-1.28,1.53,1.53,0,0,0-1-1.49,18.64,18.64,0,0,0-3.22-1,25.54,25.54,0,0,1-3.68-1,6.1,6.1,0,0,1-2.48-1.74,4.86,4.86,0,0,1-1-3.3,5.37,5.37,0,0,1,2.05-4.37,8.92,8.92,0,0,1,5.79-1.67A9.25,9.25,0,0,1,762.72,403.84Z" transform="translate(-469.08 -146)"></path><path d="M637.15,464.36c0-1.53-.66-2.3-2-2.3a1.84,1.84,0,0,0-1.64.79,4.87,4.87,0,0,0-.57,2.43h-4.68a7.48,7.48,0,0,1,2.19-5.43,7.32,7.32,0,0,1,5.09-1.82,6.59,6.59,0,0,1,4.86,1.63,5.69,5.69,0,0,1,1.64,4.22,9,9,0,0,1-2.21,5.65,20.94,20.94,0,0,1-5.29,4.66h7.81v3.86H628.25v-3.58Q637.15,468.11,637.15,464.36Z" transform="translate(-469.08 -146)"></path><path d="M644.32,468.17a12.64,12.64,0,0,1,1.87-7.32q1.88-2.72,6-2.71t6,2.71a15.2,15.2,0,0,1,0,14.68q-1.89,2.72-6,2.72t-6-2.72A12.75,12.75,0,0,1,644.32,468.17Zm11,0a10.39,10.39,0,0,0-.63-4.08,2.44,2.44,0,0,0-2.47-1.41,2.48,2.48,0,0,0-2.52,1.43,10.12,10.12,0,0,0-.65,4.06,10.34,10.34,0,0,0,.65,4.1,2.47,2.47,0,0,0,2.52,1.44,2.43,2.43,0,0,0,2.47-1.44A10.57,10.57,0,0,0,655.29,468.17Z" transform="translate(-469.08 -146)"></path><path d="M671,464.36c0-1.53-.66-2.3-2-2.3a1.84,1.84,0,0,0-1.64.79,4.87,4.87,0,0,0-.57,2.43h-4.68a7.44,7.44,0,0,1,2.19-5.43,7.32,7.32,0,0,1,5.09-1.82,6.59,6.59,0,0,1,4.86,1.63,5.69,5.69,0,0,1,1.64,4.22,9,9,0,0,1-2.21,5.65,20.81,20.81,0,0,1-5.3,4.66h7.82v3.86H662.12v-3.58Q671,468.11,671,464.36Z" transform="translate(-469.08 -146)"></path><path d="M686.88,464.36c0-1.53-.67-2.3-2-2.3a1.84,1.84,0,0,0-1.64.79,4.76,4.76,0,0,0-.57,2.43H678a7.47,7.47,0,0,1,2.18-5.43,7.36,7.36,0,0,1,5.1-1.82,6.59,6.59,0,0,1,4.86,1.63,5.69,5.69,0,0,1,1.64,4.22,9,9,0,0,1-2.22,5.65,20.6,20.6,0,0,1-5.29,4.66h7.81v3.86H678v-3.58Q686.88,468.11,686.88,464.36Z" transform="translate(-469.08 -146)"></path><path class="cls-7" d="M551.38,251.27v3.53h-2.15a6,6,0,0,1-4.16-1.31c-1-.88-1.44-2.34-1.44-4.37v-7h-2.24v-3.46h2.24v-4h4.11v4h3.61v3.46h-3.61v7a2.27,2.27,0,0,0,.47,1.63,2.12,2.12,0,0,0,1.57.47Z" transform="translate(-469.08 -146)"></path><path class="cls-8" d="M569.36,247.51H557.53a4.5,4.5,0,0,0,1.16,3.18,3.76,3.76,0,0,0,2.68,1,3.86,3.86,0,0,0,2.38-.7,3.15,3.15,0,0,0,1.21-1.89h4.34a7,7,0,0,1-4.07,5.12,8.52,8.52,0,0,1-3.65.76,8.64,8.64,0,0,1-4.2-1,7.07,7.07,0,0,1-2.85-2.86,10,10,0,0,1,0-8.82,7,7,0,0,1,2.85-2.87,8.74,8.74,0,0,1,4.2-1,8.53,8.53,0,0,1,4.18,1,7,7,0,0,1,2.77,2.73,7.88,7.88,0,0,1,1,3.94A8.38,8.38,0,0,1,569.36,247.51Zm-5-4.8a3.93,3.93,0,0,0-2.75-1,4,4,0,0,0-2.8,1,4.17,4.17,0,0,0-1.25,3h7.84A3.64,3.64,0,0,0,564.33,242.71Z" transform="translate(-469.08 -146)"></path><path class="cls-9" d="M584.87,240.14a7.39,7.39,0,0,1,2.61,4.6h-4.34a3.38,3.38,0,0,0-1.2-2,3.7,3.7,0,0,0-2.36-.74,3.51,3.51,0,0,0-2.72,1.21,6.29,6.29,0,0,0,0,7.08,3.55,3.55,0,0,0,2.72,1.21,3.65,3.65,0,0,0,2.36-.75,3.38,3.38,0,0,0,1.2-2h4.34a7.39,7.39,0,0,1-2.61,4.6,8,8,0,0,1-5.2,1.69,8.57,8.57,0,0,1-4.19-1,7,7,0,0,1-2.86-2.86,10,10,0,0,1,0-8.82,6.94,6.94,0,0,1,2.86-2.87,8.67,8.67,0,0,1,4.19-1A8,8,0,0,1,584.87,240.14Z" transform="translate(-469.08 -146)"></path><path class="cls-10" d="M604.46,240.26a7.39,7.39,0,0,1,1.67,5.15v9.39h-4.08v-8.92a4.19,4.19,0,0,0-1-3,3.53,3.53,0,0,0-2.71-1.07,3.62,3.62,0,0,0-2.8,1.14,4.63,4.63,0,0,0-1,3.26v8.57h-4.11V233.24h4.11v8.65a5.14,5.14,0,0,1,2.11-2.55,6.32,6.32,0,0,1,3.4-.92A5.68,5.68,0,0,1,604.46,240.26Z" transform="translate(-469.08 -146)"></path><path class="cls-11" d="M616.23,239.31a6.37,6.37,0,0,1,3.32-.89v4.4h-1.19q-4.51,0-4.51,4.2v7.78h-4.11V238.66h4.11v3.08A6.68,6.68,0,0,1,616.23,239.31Z" transform="translate(-469.08 -146)"></path><path class="cls-12" d="M636.86,247.51H625a4.46,4.46,0,0,0,1.17,3.18,3.75,3.75,0,0,0,2.68,1,3.85,3.85,0,0,0,2.37-.7,3.1,3.1,0,0,0,1.21-1.89h4.34a7,7,0,0,1-1.37,3,7.09,7.09,0,0,1-2.69,2.09,9.19,9.19,0,0,1-7.85-.25,7,7,0,0,1-2.86-2.86,10,10,0,0,1,0-8.82,6.94,6.94,0,0,1,2.86-2.87,8.67,8.67,0,0,1,4.19-1,8.5,8.5,0,0,1,4.18,1,6.93,6.93,0,0,1,2.77,2.73,7.89,7.89,0,0,1,1,3.94A7.52,7.52,0,0,1,636.86,247.51Zm-5-4.8a3.92,3.92,0,0,0-2.75-1,4,4,0,0,0-2.79,1,4.18,4.18,0,0,0-1.26,3h7.84A3.61,3.61,0,0,0,631.83,242.71Z" transform="translate(-469.08 -146)"></path><path class="cls-13" d="M646.94,250.69l4.08-12h4.37l-6,16.14h-5l-6-16.14h4.4Z" transform="translate(-469.08 -146)"></path><path class="cls-14" d="M657.9,232.41a2.61,2.61,0,0,1,1.83-.63,2.65,2.65,0,0,1,1.84.63,2.18,2.18,0,0,1,0,3.2,2.65,2.65,0,0,1-1.84.63,2.61,2.61,0,0,1-1.83-.63,2.18,2.18,0,0,1,0-3.2Zm3.87,6.25V254.8h-4.11V238.66Z" transform="translate(-469.08 -146)"></path><path class="cls-15" d="M680.53,247.51H668.71a4.41,4.41,0,0,0,1.16,3.18,3.75,3.75,0,0,0,2.68,1,3.85,3.85,0,0,0,2.37-.7,3.06,3.06,0,0,0,1.21-1.89h4.35a7,7,0,0,1-4.07,5.12,9.19,9.19,0,0,1-7.85-.25,7,7,0,0,1-2.85-2.86,10,10,0,0,1,0-8.82,6.92,6.92,0,0,1,2.85-2.87,8.67,8.67,0,0,1,4.19-1,8.54,8.54,0,0,1,4.19,1,7,7,0,0,1,2.76,2.73,7.89,7.89,0,0,1,1,3.94A7.52,7.52,0,0,1,680.53,247.51Zm-5-4.8a4,4,0,0,0-2.76-1,4,4,0,0,0-2.79,1,4.13,4.13,0,0,0-1.25,3h7.83A3.61,3.61,0,0,0,675.51,242.71Z" transform="translate(-469.08 -146)"></path><path class="cls-16" d="M706.7,238.66l-4.34,16.14h-4.55l-3.47-11.74-3.55,11.74h-4.55l-4.31-16.14H686l2.62,12.47,3.59-12.47h4.34l3.61,12.47,2.65-12.47Z" transform="translate(-469.08 -146)"></path><path class="cls-17" d="M723.77,247.51H711.94a4.5,4.5,0,0,0,1.16,3.18,3.76,3.76,0,0,0,2.68,1,3.86,3.86,0,0,0,2.38-.7,3.15,3.15,0,0,0,1.21-1.89h4.34a7,7,0,0,1-1.37,3,7.13,7.13,0,0,1-2.7,2.09A8.52,8.52,0,0,1,716,255a8.64,8.64,0,0,1-4.2-1,7.07,7.07,0,0,1-2.85-2.86,10,10,0,0,1,0-8.82,7,7,0,0,1,2.85-2.87,8.74,8.74,0,0,1,4.2-1,8.53,8.53,0,0,1,4.18,1,7,7,0,0,1,2.77,2.73,7.88,7.88,0,0,1,1,3.94A8.38,8.38,0,0,1,723.77,247.51Zm-5-4.8a3.93,3.93,0,0,0-2.75-1,4,4,0,0,0-2.8,1,4.21,4.21,0,0,0-1.25,3h7.84A3.64,3.64,0,0,0,718.74,242.71Z" transform="translate(-469.08 -146)"></path><path class="cls-18" d="M733.32,239.31a6.37,6.37,0,0,1,3.32-.89v4.4h-1.19q-4.51,0-4.51,4.2v7.78h-4.11V238.66h4.11v3.08A6.68,6.68,0,0,1,733.32,239.31Z" transform="translate(-469.08 -146)"></path><path class="cls-19" d="M742.33,250.51v4.29H737.9v-4.29Z" transform="translate(-469.08 -146)"></path><path class="cls-20" d="M757.52,240.14a7.39,7.39,0,0,1,2.61,4.6h-4.34a3.38,3.38,0,0,0-1.2-2,3.7,3.7,0,0,0-2.36-.74,3.51,3.51,0,0,0-2.72,1.21,6.29,6.29,0,0,0,0,7.08,3.55,3.55,0,0,0,2.72,1.21,3.65,3.65,0,0,0,2.36-.75,3.38,3.38,0,0,0,1.2-2h4.34a7.39,7.39,0,0,1-2.61,4.6,8,8,0,0,1-5.2,1.69,8.64,8.64,0,0,1-4.2-1,7.07,7.07,0,0,1-2.85-2.86,10,10,0,0,1,0-8.82,7,7,0,0,1,2.85-2.87,8.74,8.74,0,0,1,4.2-1A8,8,0,0,1,757.52,240.14Z" transform="translate(-469.08 -146)"></path><path class="cls-21" d="M774.74,239.44a7.3,7.3,0,0,1,3,2.87,9.62,9.62,0,0,1,0,8.82,7.4,7.4,0,0,1-3,2.86,9.4,9.4,0,0,1-8.48,0,7.4,7.4,0,0,1-3-2.86,9.62,9.62,0,0,1,0-8.82,7.3,7.3,0,0,1,3-2.87,9.57,9.57,0,0,1,8.48,0Zm-7.15,3.77a5.75,5.75,0,0,0,0,7,4.1,4.1,0,0,0,5.82,0,5.75,5.75,0,0,0,0-7,4.13,4.13,0,0,0-5.82,0Z" transform="translate(-469.08 -146)"></path></svg>