<?xml version="1.0" encoding="UTF-8"?>
<svg id="Layer_2" data-name="Layer 2" xmlns="http://www.w3.org/2000/svg" xmlns:xlink="http://www.w3.org/1999/xlink" viewBox="0 0 323.63 278.17">
  <defs>
    <style>
      .cls-1 {
        isolation: isolate;
      }

      .cls-1, .cls-2 {
        opacity: .5;
      }

      .cls-1, .cls-3 {
        fill: #4385f4;
      }

      .cls-4 {
        fill: #fff;
      }

      .cls-5 {
        fill: #f8b64c;
      }

      .cls-6 {
        fill: #ffc952;
      }

      .cls-7 {
        fill: #ffd15c;
      }

      .cls-8 {
        clip-path: url(#clippath-1);
      }

      .cls-9 {
        fill: #3d597a;
      }

      .cls-10 {
        fill: #f1543f;
      }

      .cls-11 {
        fill: #ff7058;
      }

      .cls-12 {
        fill: #ffa829;
      }

      .cls-13 {
        clip-path: url(#clippath);
      }

      .cls-14, .cls-15 {
        fill: none;
      }

      .cls-15 {
        stroke: #4385f4;
        stroke-dasharray: 0 0 3 3;
        stroke-miterlimit: 10;
        stroke-width: 2px;
      }

      .cls-16 {
        fill: #2c72c6;
      }
    </style>
    <clipPath id="clippath">
      <path class="cls-14" d="m169.6,134.65c-1.4.74-2.84,1.41-4.31,2l-.9.18-.89-.36c-1.47-.59-2.91-1.26-4.31-2l2.33-5.38h5.56l2.52,5.56Z"/>
    </clipPath>
    <clipPath id="clippath-1">
      <rect class="cls-14" x="136.39" y="74.07" width="55.83" height="2.69"/>
    </clipPath>
  </defs>
  <g id="Layer_1-2" data-name="Layer 1">
    <path class="cls-4" d="m162.14,275.17c-75.14,0-136.27-61-136.27-136S87,3.17,162.14,3.17s136.27,61,136.27,136-61.13,136-136.27,136Z"/>
    <path class="cls-3" d="m162.14,6.03c73.54.05,133.11,59.7,133.06,133.24-.05,73.54-59.7,133.11-133.24,133.06-73.54-.05-133.11-59.7-133.06-133.24.02-35.3,14.06-69.14,39.03-94.09C92.88,19.95,126.81,5.91,162.17,6m0-6C85.25,0,22.9,62.25,22.9,139s62.32,139.17,139.24,139.17,139.27-62.25,139.27-139S239.05.03,162.14.03l.03-.03Z"/>
    <path class="cls-15" d="m162,268.03c71.25,0,129-57.67,129-128.81S233.25,10.42,162,10.42,33,68.09,33,139.22s57.76,128.81,129,128.81"/>
    <polygon class="cls-11" points="172.29 140.39 156.49 140.39 159.19 134.65 161.52 129.27 167.27 129.27 169.6 134.65 172.29 140.39"/>
    <path class="cls-7" d="m182.34,140.39h-35.9c-1.98,0-3.58,1.6-3.59,3.58v11.65h42.91v-11.65c.13-1.85-1.27-3.45-3.11-3.57-.1,0-.21,0-.31,0"/>
    <g class="cls-13">
      <rect class="cls-10" x="154.19" y="124.09" width="20.41" height="17.71"/>
    </g>
    <path class="cls-5" d="m192.4,69.58h-56c-1.19.02-2.14.97-2.16,2.16-.06,1.23.9,2.27,2.13,2.33.01,0,.02,0,.03,0h56c1.18-.02,2.13-.98,2.15-2.16.06-1.23-.9-2.27-2.13-2.33,0,0-.02,0-.02,0Zm-71.09,9.86v7.35c.06,17.45,10.61,33.15,26.75,39.79,10.46,4.31,22.21,4.31,32.67,0,16.14-6.64,26.69-22.34,26.75-39.79v-7.35h-86.17Zm79,7.35c0,8.32-2.92,16.38-8.26,22.77-6.83,8.23-16.95,13.02-27.65,13.08-10.71.02-20.87-4.78-27.64-13.08-5.29-6.41-8.21-14.45-8.26-22.77v-.18h71.63v.18h.18Z"/>
    <path class="cls-7" d="m192.4,74.07v19.35c-.03,18.05-11.16,34.21-28,40.69-16.86-6.56-27.97-22.77-28-40.86v-19.18h56Z"/>
    <g class="cls-8">
      <rect class="cls-6" x="131.39" y="69.07" width="65.83" height="12.69"/>
    </g>
    <path class="cls-4" d="m161.93,94.47s-1.61-.16-1.61,1.26v6.31h10.61v1.89c.02.5-.36.93-.86.95-.05,0-.09,0-.14,0h-9.6v8.2h11.6s7-1.07,7.07-8.2v-10.41h-17.07Zm16.44-10.22h-20.64c-7.47,1.77-7.63,8-7.63,8v20.88h8v-19c0-.93.63-1.74,1.53-1.96h18.75v-7.92Z"/>
    <path class="cls-14" d="m229.56,239l.11-.07s-.04.03-.11.07Zm14.43-13.1l.08-.07-.08.07Zm13.12-15.73l.05-.08s-.02.08-.05.08Zm19.67-49.81h0s.01-.01,0,0h0Zm0-18.3s0-.07,0-.06.01.03,0,.07h0Zm-1.31-17v-.1s.01.06,0,.12v-.02Zm-3.93-15.78h0v.02-.02Zm-111.5,134.45c-9.91.45-19.82-.73-29.35-3.48,3.41-4.4-2.22-8.78-7.61-13-5.65-4.2-11.31-8.39-11.31-8.41s6.66,6.83,6,12.69c-.22,1.33-.18,2.69.11,4-1.54-.7-3.06-1.44-4.55-2.22,4-3.78-.53-9.19-4.84-14.33-4.56-5.18-9.16-10.27-9.16-10.29s5.06,7.91,3.36,13.68c-.45,1.28-.66,2.64-.62,4-1.34-1-2.65-1.94-3.92-3,4.45-3.14,1.2-9.32-2-15.11-3.39-5.9-6.89-11.61-6.89-11.62s3.41,8.6.73,14.11c-.67,1.21-1.12,2.53-1.32,3.9-1.11-1.17-2.19-2.36-3.22-3.57,4.76-2.45,2.9-9.06.88-15.32-2.25-6.36-4.67-12.33-4.64-12.42-.13,0,1.8,8.95-1.79,14-.86,1.1-1.54,2.34-2,3.67-.86-1.33-1.69-2.67-2.49-4,5.08-1.76,4.43-8.55,3.53-15-1.09-6.55-2.45-12.73-2.45-12.8s.29,9-4.09,13.5c-1,1.01-1.84,2.18-2.47,3.46-.4-.91-.79-1.83-1.16-2.75-.29-.71-.56-1.42-.83-2.14,5.11-1,5.57-7.38,5.71-13.48,0-6.22-.37-12.11-.4-12.17s-1,8.36-5.83,12c-1.12.78-2.12,1.74-2.94,2.84-.5-1.93-1-3.86-1.35-5.81,5.07-.13,6.45-6.05,7.44-11.72s1.32-11.25,1.27-11.31-2.06,7.6-7.09,10.33c-1.19.59-2.29,1.38-3.23,2.32-.25-2.2-.42-4.39-.54-6.59,4.87.58,6.94-4.71,8.6-9.86,1.04-3.4,1.9-6.84,2.58-10.33-.07,0-2.84,6.8-7.91,8.67-1.22.4-2.36.99-3.38,1.76.05-2,.15-3.91.3-5.85,0-.46.07-.91.11-1.37,4.39,1.22,7.12-3.49,9.21-8s3.58-9.34,3.58-9.35-3.4,6-8.35,7.09c-1.16.21-2.28.6-3.31,1.17.41-2.56.9-5.11,1.47-7.65,3.85,1.56,6.9-2.41,9.3-6.37,1.6-2.74,3.05-5.57,4.34-8.47,0,0-3.8,5.36-8.49,5.7-1.02.04-2.04.23-3,.58.77-2.67,1.62-5.3,2.55-7.9,3.27,1.65,6.41-1.61,9-5,1.81-2.48,3.48-5.06,5-7.73,0,0-4.14,4.71-8.46,4.39-.8-.07-1.61-.04-2.4.11,1.06-2.56,2.2-5.12,3.41-7.68l.21-.5c2.71,1.66,5.85-1,8.54-4,1.99-2.28,3.86-4.66,5.6-7.14-.06,0-4.44,4.39-8.32,3.62-.81-.18-1.64-.22-2.46-.13,2.68-5.71,5.68-11.25,9-16.61-3.77,5.56-7.08,10.98-10.05,16.33-.35-.97-.84-1.88-1.46-2.71-1.26-1.65-1.26-4.29-.83-6.64.29-1.43.71-2.83,1.26-4.18-1.99,3.22-3.6,6.66-4.77,10.26-1.53,5.07-1.49,9.88,2,10.48-1.4,2.81-2.68,5.62-3.87,8.43-.49-.79-1.08-1.5-1.75-2.14-1.6-1.51-2-4.21-1.94-6.54.07-1.46.29-2.9.66-4.31-1.62,3.45-2.79,7.09-3.5,10.83-.86,5.14-.21,9.93,3.37,10.32-.91,2.58-1.74,5.15-2.5,7.74-.6-.65-1.27-1.22-2-1.72-3.85-2.53-3.09-10.2-3-10.78-1.23,3.69-1.96,7.53-2.18,11.42-.21,5.3,1.07,10.12,4.81,10.16v.06c-.51,2.36-.95,4.74-1.34,7.13-.71-.57-1.48-1.06-2.3-1.46-4.43-2.06-4.66-10.06-4.59-10.66-.8,3.98-1.06,8.05-.78,12.1.49,5.53,2.5,10.41,6.46,9.9-.18,2.22-.31,4.44-.38,6.68-.84-.52-1.75-.93-2.69-1.23-4.81-1.47-6.2-9.39-6.27-10.39-.3,4.25-.02,8.52.82,12.7,1.2,5.71,4.22,10.74,8.26,9.48.12,2,.28,4.1.5,6.14-1-.47-2.05-.8-3.14-1-5.34-.87-7.9-9.25-8-10.06.28,4.54,1.18,9.02,2.69,13.31,2.11,6,6.11,10.93,10.23,8.75.39,1.86.83,3.73,1.32,5.58-1.18-.39-2.42-.6-3.66-.64-5.82-.16-9.8-9-9.92-9.51.95,4.78,2.58,9.4,4.85,13.72,3.21,6.09,8.31,10.87,12.32,7.63.62,1.64,1.29,3.27,2,4.88-1.35-.27-2.72-.33-4.09-.19-6.2.68-11.85-8.28-11.92-8.62,1.75,4.93,4.23,9.58,7.35,13.78,4.43,6,10.69,10.33,14.32,6.11.81,1.37,1.65,2.71,2.52,4-1.38-.08-2.76.05-4.1.37-6.19,1.57-13.42-6.89-13.3-7,2.53,4.75,5.8,9.08,9.67,12.82,5.46,5.36,12.49,8.75,15.42,4,1,1.23,2.14,2.43,3.27,3.62-1.4.13-2.77.46-4.07,1-5.64,2.38-13.78-4.14-14.47-4.91,3.37,4.28,7.36,8.04,11.83,11.15,6.59,4.53,14.2,6.62,16.34,1.64,1.3,1.05,2.64,2.06,4,3.05-1.4.33-2.75.86-4,1.57-5.28,3.13-14.62-2-15.56-2.65,4.19,3.72,8.91,6.8,14,9.13,7.51,3.4,15.67,4.14,16.93-1,1.52.79,3.06,1.56,4.64,2.28-1.34.55-2.6,1.28-3.74,2.18-4.79,3.92-15.16.52-16.33,0,4.94,2.95,10.3,5.15,15.89,6.52,8.27,2,16.73,1.26,17.13-3.89,9.65,2.81,19.7,4.01,29.74,3.53l.24-1.66Z"/>
    <path class="cls-1" d="m97.07,238.41l-.11-.07s.04.03.11.07Zm-15.37-12.49l-.08-.08s.03.04.08.08Zm-12.53-14.75l-.06-.07.06.07Zm-20.19-68.44v-.06.07h0Zm1.59-17.24c0-.07,0-.11,0-.1s0,.05,0,.11h0Zm9.2-33.6h0s0-.02,0,0Z"/>
    <g class="cls-2">
      <path class="cls-3" d="m159.58,242.96c-9.83.44-19.66-.73-29.11-3.48,3.38-4.38-2.2-8.74-7.55-12.94l-11.21-8.37c-.13.1,6.6,6.8,6,12.64-.22,1.33-.18,2.69.11,4-1.53-.71-3-1.44-4.52-2.22,3.93-3.77-.52-9.17-4.8-14.29-4.52-5.17-9.08-10.24-9.09-10.25s5,7.88,3.34,13.63c-.45,1.28-.66,2.64-.62,4-1.33-1-2.63-1.94-3.89-3,4.42-3.12,1.2-9.28-2-15.06-3.36-5.87-6.83-11.57-6.83-11.58s3.38,8.57.72,14.06c-.66,1.21-1.11,2.53-1.31,3.9-1.1-1.17-2.17-2.36-3.2-3.57,4.73-2.43,2.89-9,.88-15.26-2.23-6.35-4.63-12.3-4.61-12.39s1.79,8.92-1.77,14c-.86,1.1-1.54,2.34-2,3.67-.85-1.33-1.67-2.67-2.46-4,5-1.76,4.39-8.52,3.5-14.92-1.09-6.54-2.43-12.7-2.43-12.77s.29,9-4.06,13.46c-1.02.97-1.88,2.1-2.54,3.34-.39-.91-.78-1.82-1.15-2.74-.28-.71-.56-1.42-.82-2.14,5.07-.94,5.52-7.35,5.66-13.43,0-6.21-.36-12.08-.39-12.14s-1,8.33-5.79,12c-1.12.78-2.1,1.73-2.91,2.82-.5-1.92-1-3.84-1.34-5.78,5-.14,6.39-6,7.38-11.69s1.35-11.29,1.3-11.29-2,7.57-7,10.29c-1.19.59-2.27,1.38-3.2,2.32-.24-2.19-.42-4.38-.53-6.57,4.82.58,6.87-4.7,8.52-9.83,1.03-3.39,1.88-6.83,2.56-10.3-.06,0-2.81,6.78-7.84,8.64-1.21.4-2.35.99-3.36,1.76.06-1.95.16-3.9.3-5.83,0-.46.08-.92.11-1.37,4.35,1.21,7.06-3.48,9.14-8s3.55-9.31,3.55-9.32-3.37,6-8.29,7.07c-1.16.2-2.28.58-3.31,1.14.4-2.55.89-5.09,1.45-7.62,3.82,1.55,6.84-2.4,9.22-6.35,1.59-2.74,3.03-5.56,4.32-8.45,0,0-3.78,5.35-8.43,5.69-1,.04-1.99.24-2.93.58.76-2.63,1.6-5.25,2.52-7.88,3.24,1.65,6.36-1.61,8.92-5,1.79-2.47,3.44-5.04,4.94-7.7,0,0-4.08,4.8-8.38,4.52-.79-.07-1.59-.03-2.38.11,1.06-2.55,2.19-5.1,3.39-7.66l.21-.5c2.69,1.66,5.8-1,8.47-4,1.97-2.28,3.82-4.65,5.55-7.12,0,0-4.4,4.38-8.25,3.61-.79-.19-1.6-.25-2.41-.18,2.67-5.69,5.68-11.21,9-16.55-3.75,5.5-7.08,10.9-10,16.25-.35-.97-.83-1.88-1.45-2.7-1.23-1.66-1.26-4.34-.82-6.63.28-1.42.7-2.82,1.25-4.16-1.99,3.2-3.57,6.63-4.73,10.22-1.53,5.06-1.48,9.85,2,10.45-1.39,2.8-2.66,5.61-3.84,8.4-.48-.78-1.07-1.5-1.73-2.13-1.59-1.51-2-4.19-1.93-6.52.06-1.45.29-2.89.66-4.3-1.61,3.44-2.77,7.07-3.47,10.8-.86,5.12-.22,9.9,3.33,10.29-.9,2.57-1.72,5.15-2.47,7.72-.6-.65-1.27-1.23-2-1.72-3.86-2.47-3.1-10.17-2.96-10.75-1.22,3.69-1.94,7.52-2.17,11.39-.21,5.28,1.07,10.09,4.78,10.13v.06c-.5,2.35-.94,4.72-1.32,7.11-.71-.56-1.49-1.03-2.31-1.41-4.39-2-4.62-10-4.55-10.63-.79,3.97-1.05,8.02-.77,12.06.48,5.52,2.48,10.39,6.41,9.87-.18,2.22-.31,4.44-.38,6.66-.84-.51-1.74-.92-2.67-1.22-4.77-1.47-6.15-9.36-6.22-10.35-.29,4.22-.01,8.46.82,12.61,1.18,5.7,4.18,10.72,8.19,9.46.11,2.04.27,4.08.5,6.12-.99-.47-2.04-.81-3.12-1-5.29-.87-7.84-9.23-8-10,.28,4.52,1.17,8.99,2.67,13.27,2.1,5.93,6.06,10.9,10.15,8.72.39,1.86.82,3.72,1.31,5.57-1.17-.38-2.4-.6-3.63-.64-5.78-.16-9.72-8.94-9.85-9.48.95,4.76,2.57,9.37,4.82,13.68,3.19,6.07,8.24,10.83,12.22,7.6.62,1.64,1.29,3.26,2,4.87-1.34-.27-2.7-.33-4.06-.19-6.15.68-11.75-8.26-11.81-8.59,1.74,4.91,4.19,9.54,7.28,13.73,4.4,6,10.61,10.31,14.21,6.1.8,1.33,1.63,2.67,2.5,4-1.37-.08-2.74.05-4.07.37-6.13,1.56-13.31-6.87-13.19-7,2.51,4.7,5.73,8.98,9.55,12.69,5.42,5.35,12.39,8.73,15.29,4,1,1.22,2.13,2.43,3.25,3.61-1.37.12-2.72.44-4,.95-5.67,2.42-13.67-4.04-14.43-4.84,3.35,4.28,7.31,8.04,11.76,11.15,6.53,4.52,14.08,6.6,16.2,1.63,1.29,1.05,2.62,2.05,4,3-1.4.33-2.75.86-4,1.57-5.24,3.12-14.5-1.95-15.44-2.64,4.16,3.7,8.84,6.77,13.89,9.1,7.45,3.39,15.54,4.13,16.79-1,1.5.8,3,1.55,4.6,2.27-1.33.55-2.58,1.28-3.71,2.18-4.75,3.91-15,.52-16.2,0,4.93,2.96,10.28,5.17,15.87,6.54,8.19,2,16.59,1.26,17-3.88,9.57,2.81,19.55,3.99,29.51,3.52l.14-1.65Z"/>
    </g>
    <path class="cls-14" d="m166.62,242.96c9.83.44,19.66-.73,29.11-3.48-3.38-4.38,2.21-8.74,7.55-12.94l11.22-8.37c.12.1-6.61,6.8-6,12.64.22,1.33.18,2.69-.11,4,1.53-.71,3-1.44,4.52-2.22-3.93-3.77.52-9.17,4.8-14.29,4.52-5.17,9.09-10.24,9.09-10.25s-5,7.88-3.34,13.63c.45,1.28.66,2.64.62,4,1.33-1,2.63-1.94,3.89-3-4.42-3.12-1.2-9.28,1.95-15.06,3.36-5.87,6.83-11.57,6.84-11.58s-3.39,8.57-.73,14.06c.66,1.21,1.11,2.53,1.31,3.9,1.1-1.17,2.17-2.36,3.2-3.57-4.73-2.43-2.89-9-.88-15.26,2.23-6.35,4.63-12.3,4.61-12.39s-1.79,8.92,1.77,14c.85,1.11,1.51,2.35,1.95,3.67.86-1.33,1.68-2.67,2.47-4-5-1.76-4.39-8.52-3.5-14.92,1.09-6.54,2.43-12.7,2.43-12.77s-.29,9,4.06,13.46c1.02.97,1.88,2.1,2.54,3.34.4-.91.78-1.82,1.15-2.74.28-.71.56-1.42.82-2.14-5.07-.94-5.52-7.35-5.66-13.43,0-6.21.36-12.08.39-12.14s1,8.33,5.79,12c1.12.78,2.1,1.73,2.91,2.82.5-1.92.95-3.84,1.34-5.78-5-.14-6.39-6-7.38-11.69-.84-5.74-1.31-11.21-1.26-11.27s2.05,7.57,7,10.29c1.19.6,2.27,1.38,3.21,2.32.23-2.19.41-4.38.52-6.57-4.82.58-6.87-4.7-8.52-9.83-1.03-3.39-1.89-6.82-2.56-10.3.06,0,2.82,6.78,7.84,8.64,1.21.4,2.35.99,3.36,1.76-.06-1.95-.16-3.9-.3-5.83,0-.46-.07-.92-.11-1.37-4.35,1.21-7.06-3.48-9.14-8s-3.54-9.31-3.55-9.32,3.37,6,8.29,7.07c1.15.21,2.25.6,3.27,1.16-.4-2.55-.89-5.09-1.45-7.62-3.82,1.55-6.84-2.4-9.22-6.35-1.59-2.73-3.03-5.56-4.31-8.45,0,0,3.77,5.35,8.42,5.69,1,.04,1.99.24,2.93.58-.76-2.63-1.6-5.25-2.52-7.88-3.24,1.65-6.36-1.61-8.92-5-1.79-2.47-3.44-5.04-4.94-7.7,0,0,4.08,4.8,8.38,4.52.79-.07,1.59-.03,2.38.11-1.06-2.55-2.19-5.1-3.39-7.66l-.21-.5c-2.69,1.66-5.8-1-8.47-4-1.97-2.28-3.82-4.65-5.55-7.12,0,0,4.4,4.38,8.25,3.61.8-.18,1.63-.22,2.44-.13-2.67-5.69-5.68-11.21-9-16.55,3.75,5.5,7.08,10.9,10,16.25.34-.97.82-1.88,1.44-2.7,1.23-1.66,1.26-4.34.82-6.63-.28-1.42-.7-2.82-1.25-4.16,1.99,3.2,3.58,6.63,4.73,10.22,1.53,5.06,1.48,9.85-2,10.45,1.39,2.8,2.66,5.61,3.84,8.4.48-.78,1.07-1.5,1.73-2.13,1.6-1.51,2-4.19,1.93-6.52-.06-1.45-.29-2.89-.66-4.3,1.61,3.44,2.77,7.07,3.47,10.8.86,5.12.22,9.9-3.33,10.29.9,2.57,1.72,5.15,2.47,7.72.6-.65,1.27-1.23,2-1.72,3.82-2.52,3.06-10.17,2.92-10.75,1.22,3.69,1.94,7.52,2.17,11.39.21,5.28-1.07,10.09-4.78,10.13v.06c.5,2.35.94,4.72,1.32,7.11.7-.57,1.47-1.06,2.29-1.46,4.39-2,4.62-10,4.55-10.63.79,3.97,1.05,8.02.77,12.06-.48,5.52-2.48,10.39-6.41,9.87.18,2.22.31,4.44.39,6.66.84-.51,1.73-.92,2.66-1.22,4.77-1.47,6.14-9.36,6.22-10.35.29,4.23.02,8.49-.82,12.65-1.18,5.7-4.18,10.72-8.19,9.46-.11,2.04-.28,4.08-.5,6.12.99-.47,2.04-.81,3.12-1,5.29-.87,7.84-9.23,8-10-.28,4.52-1.17,8.99-2.67,13.27-2.1,5.93-6.06,10.9-10.15,8.72-.39,1.86-.82,3.72-1.31,5.57,1.17-.38,2.4-.6,3.63-.64,5.78-.16,9.72-8.94,9.85-9.48-.95,4.76-2.57,9.37-4.82,13.68-3.19,6.07-8.24,10.83-12.22,7.6-.62,1.64-1.29,3.26-2,4.87,1.34-.27,2.7-.33,4.06-.19,6.15.68,11.75-8.26,11.81-8.59-1.74,4.91-4.19,9.54-7.28,13.73-4.4,6-10.61,10.31-14.21,6.1-.8,1.33-1.63,2.67-2.5,4,1.37-.08,2.74.05,4.07.37,6.13,1.56,13.31-6.87,13.19-7-2.51,4.7-5.73,8.98-9.55,12.69-5.42,5.35-12.39,8.73-15.29,4-1,1.22-2.13,2.43-3.25,3.61,1.37.12,2.72.44,4,.95,5.59,2.31,13.66-4.15,14.39-4.92-3.34,4.27-7.3,8.01-11.74,11.12-6.53,4.52-14.08,6.6-16.2,1.63-1.29,1.05-2.62,2.05-4,3,1.39.33,2.72.86,3.95,1.57,5.24,3.12,14.5-1.95,15.44-2.64-4.16,3.7-8.84,6.77-13.89,9.1-7.45,3.39-15.54,4.13-16.79-1-1.5.8-3,1.55-4.6,2.27,1.33.55,2.58,1.28,3.71,2.18,4.75,3.91,15,.52,16.2,0-4.91,2.96-10.24,5.18-15.81,6.56-8.19,2-16.58,1.26-17-3.88-9.57,2.81-19.55,3.99-29.51,3.52l-.21-1.65h.2Z"/>
    <path d="m200.93,219.17c.25-.34.38-.75.37-1.17v-.93c.01-.42-.12-.84-.38-1.17-.25-.28-.62-.43-1-.4-.38-.03-.75.12-1,.4-.26.34-.39.75-.37,1.17v.93c-.01.42.12.84.38,1.17.26.28.62.42,1,.39.38.03.74-.11,1-.39Zm-3.16.89c-.53-.53-.83-1.25-.83-2v-1.05c0-.75.3-1.47.84-2,1.28-.96,3.05-.96,4.33,0,.54.53.84,1.25.84,2v1.05c0,.75-.29,1.47-.83,2-1.29.96-3.06.96-4.35,0h0Zm-6.86,0c-.54-.53-.84-1.25-.83-2v-.96c0-.75.3-1.47.83-2,.58-.51,1.34-.77,2.11-.73.55-.02,1.1.1,1.6.33.4.18.74.47,1,.82.19.27.31.6.34.93,0,.08-.02.16-.08.21-.06.05-.13.08-.21.08h-1.06c-.07.02-.13.02-.2,0-.05-.06-.09-.13-.12-.2-.09-.26-.25-.49-.47-.66-.22-.14-.49-.21-.75-.2-.38-.04-.75.1-1,.38-.26.34-.39.76-.37,1.18v.84c.05,1.04.49,1.56,1.32,1.56.27,0,.53-.06.76-.2.22-.17.38-.41.46-.67.02-.07.07-.14.12-.19.06-.05.13-.07.2-.06h1.06c.08,0,.15.03.21.08.06.05.09.13.08.21-.03.32-.14.63-.33.9-.25.36-.6.65-1,.84-.5.25-1.06.37-1.62.35-.76,0-1.48-.3-2.03-.82l-.02-.02Zm-3.67.53c-.05-.05-.08-.13-.08-.2v-1.22c-.01-.15.1-.28.25-.29.01,0,.03,0,.04,0h1.21c.07,0,.15.03.2.08.06.05.09.13.09.21v1.21c0,.07-.03.15-.08.2-.05.06-.13.09-.21.09h-1.21c-.08.02-.17,0-.24-.06l.03-.02Zm-5.55-.07c-.35-.14-.66-.36-.91-.64-.16-.17-.27-.39-.29-.63,0-.07.02-.14.07-.19.05-.05.12-.08.19-.08h1c.07,0,.13.04.17.1l.27.23c.3.25.69.39,1.08.38.27.01.54-.05.78-.18.19-.11.31-.32.3-.54,0-.14-.05-.28-.14-.39-.14-.13-.31-.22-.49-.27-.35-.12-.71-.21-1.07-.29-.55-.08-1.07-.31-1.5-.66-.33-.3-.51-.73-.49-1.17,0-.33.1-.64.29-.91.22-.3.52-.54.86-.69.43-.19.89-.28,1.36-.27.48-.01.96.07,1.4.25.34.14.65.35.9.62.17.17.28.4.3.64,0,.07-.02.13-.07.18-.05.05-.12.08-.19.08h-.9c-.08,0-.15-.03-.2-.09-.09-.07-.18-.15-.27-.23-.13-.1-.27-.19-.42-.25-.17-.07-.36-.11-.55-.1-.24-.02-.48.05-.68.19-.16.12-.24.31-.24.51,0,.13.03.26.11.36.13.12.29.22.46.27.33.11.66.19,1,.25,1.44.28,2.16.91,2.16,1.89,0,.56-.27,1.08-.74,1.38-.62.39-1.34.57-2.06.53-.52.02-1.04-.07-1.52-.26l.03-.02Zm-11.61.07c-.05-.05-.08-.13-.08-.2v-5.67c0-.08.03-.15.08-.21.06-.05.13-.07.21-.07h.94c.08,0,.15.02.21.07.05.06.08.13.08.21v.45c.42-.53,1.06-.83,1.74-.81.78-.07,1.52.36,1.86,1.06.2-.32.48-.59.82-.77.35-.2.74-.3,1.14-.29.61-.02,1.2.22,1.61.67.45.55.67,1.25.62,1.95v3.45c0,.07-.03.15-.08.2-.05.06-.13.09-.21.09h-1c-.08,0-.16-.03-.21-.09-.05-.05-.08-.13-.08-.2v-3.35c.03-.39-.08-.78-.32-1.09-.21-.23-.52-.35-.83-.34-.3,0-.59.12-.8.34-.25.31-.36.7-.33,1.09v3.35c0,.07-.03.15-.08.2-.05.06-.13.09-.21.09h-1c-.16,0-.28-.13-.29-.29v-3.35c.04-.39-.08-.78-.32-1.09-.22-.22-.52-.35-.83-.34-.3,0-.59.12-.8.34-.25.31-.36.7-.33,1.09v3.35c0,.07-.02.15-.07.2-.05.06-.13.09-.21.09h-1c-.1.01-.2-.03-.26-.11l.03-.02Zm-5,0c-.05-.05-.08-.13-.08-.2v-5.65c0-.08.03-.16.08-.22.06-.05.13-.08.21-.08h1c.08,0,.16.02.22.08.05.06.08.14.08.22v.49c.41-.54,1.06-.84,1.73-.79h.5c.08,0,.15.02.21.07.05.06.08.13.08.21v.88c0,.08-.02.15-.08.2-.05.06-.13.09-.21.09h-.94c-.33-.02-.65.1-.89.32-.23.24-.35.56-.33.89v3.29c0,.08-.02.15-.08.2-.05.06-.12.09-.2.09h-1.15c-.08,0-.15-.02-.21-.07l.06-.02Zm-6.72,0c-.05-.05-.08-.13-.08-.2v-4.67h-1c-.15.01-.28-.1-.29-.25,0-.01,0-.03,0-.04v-.71c0-.07.03-.15.08-.2.06-.05.13-.08.21-.08h1v-.48c-.05-.6.17-1.2.59-1.63.5-.39,1.13-.58,1.77-.53h2.49c.08,0,.15.02.21.07.05.06.08.13.08.21v.71c0,.08-.03.16-.09.21-.05.05-.13.08-.2.08h-2.43c-.24-.02-.48.06-.66.23-.14.21-.21.46-.19.71v.42h3.28c.08,0,.15.02.21.07.05.06.08.13.08.21v5.67c0,.07-.03.15-.08.2-.05.06-.13.09-.21.09h-1c-.16,0-.28-.13-.29-.29v-4.67h-2v4.67c0,.08-.02.15-.08.2-.05.06-.13.09-.21.09h-1c-.09.02-.18,0-.25-.07l.06-.02Zm-4.43-1.51c.23-.31.35-.69.36-1.08v-.93c0-.37-.14-.72-.37-1-.25-.29-.62-.44-1-.42-.85,0-1.31.53-1.37,1.59v.72c.06,1,.52,1.58,1.37,1.58.39.02.77-.15,1.01-.46Zm-3.33,1c-.47-.59-.72-1.32-.71-2.07v-.84c0-.75.24-1.47.7-2.06.47-.53,1.16-.82,1.87-.78.7-.03,1.37.26,1.83.79v-2.67c0-.08.03-.16.09-.21.05-.05.13-.07.2-.07h1c.08,0,.15.02.21.07.05.06.08.13.08.21v8c0,.08-.02.15-.08.2-.05.06-.13.09-.21.09h-1c-.16,0-.28-.13-.29-.29v-.45c-.95,1.06-2.57,1.15-3.63.21-.05-.04-.09-.08-.13-.13h.07Zm-3.83-.83c.25-.34.38-.75.37-1.17v-.93c.01-.42-.12-.83-.37-1.17-.25-.28-.62-.43-1-.4-.38-.03-.75.12-1,.4-.25.34-.38.75-.37,1.17v.93c-.01.42.12.83.37,1.17.26.27.62.42,1,.39.4.03.79-.15,1.04-.47l-.04.08Zm-3.16.89c-.53-.53-.83-1.25-.83-2v-1.05c0-.75.3-1.47.84-2,.61-.51,1.39-.77,2.18-.72.79-.05,1.56.21,2.16.72.54.53.84,1.25.84,2v1.05c0,.75-.3,1.47-.83,2-1.29.96-3.07.96-4.36,0h0Zm-3.95-.89c.25-.34.38-.75.36-1.17,0-.15,0-.31,0-.46,0-.16,0-.31,0-.47.02-.42-.11-.83-.37-1.17-.25-.28-.62-.43-1-.4-.38-.03-.75.12-1,.4-.26.33-.39.75-.38,1.17v.93c-.01.42.12.84.38,1.17.56.54,1.44.54,2,0h0Zm-3.16.89c-.54-.53-.84-1.25-.83-2v-1.05c0-.75.3-1.47.84-2,1.28-.96,3.05-.96,4.33,0,.54.53.84,1.25.84,2v1.05c0,.75-.3,1.47-.83,2-1.29.96-3.06.96-4.35,0h0Zm-4.2-1.16c.23-.31.35-.67.37-1.05,0-.13,0-.26,0-.39,0-.13,0-.25,0-.38-.02-.38-.14-.75-.37-1.06-.25-.29-.62-.45-1-.43-.87,0-1.32.53-1.37,1.59v.28c0,1.25.46,1.88,1.38,1.88.4.02.79-.16,1.03-.48l-.04.04Zm-2.69,4c-.38-.18-.71-.46-.94-.81-.16-.23-.25-.5-.27-.78,0-.08.03-.15.08-.2.06-.05.13-.07.2-.07h1.07c.07,0,.13.01.19.05.06.05.1.12.12.2.09.21.23.39.4.53.24.17.53.24.82.22.65.13,1.27-.3,1.4-.94.03-.16.03-.32,0-.48v-.82c-1.03,1.02-2.69,1.02-3.72,0-.45-.59-.69-1.32-.67-2.06v-.65c0-.74.23-1.47.68-2.06.47-.54,1.16-.83,1.87-.78.39,0,.77.07,1.12.24.31.15.58.37.79.64v-.46c0-.08.03-.16.09-.22.06-.05.13-.08.21-.08h1c.08,0,.15.03.21.08.05.06.08.14.08.22v5.78c.05.76-.22,1.51-.74,2.06-.62.54-1.42.8-2.24.74-.59.02-1.17-.1-1.7-.35h-.04Z"/>
    <path class="cls-16" d="m323.63,165.37h-36.41v55.62h36.41l-11.7-26.12,11.7-29.5ZM0,165.37h36.41v55.62H0l11.69-26.12L0,165.37Z"/>
    <path class="cls-9" d="m305.64,146.28l-18.41,19v55.62l18.41-18.29v-56.33Zm-287.27,0l18.45,19.81v54.87l-18.45-18.4v-56.28Z"/>
    <polygon class="cls-3" points="17.96 202.45 305.6 202.45 305.57 146.12 17.96 146.12 17.96 202.45"/>
    <path class="cls-1" d="m165.28,243.73c9.91.45,19.82-.73,29.35-3.48-3.41-4.4,2.22-8.78,7.61-13,5.65-4.2,11.31-8.39,11.31-8.41s-6.66,6.83-6,12.69c.22,1.33.18,2.69-.11,4,1.54-.7,3.06-1.44,4.55-2.22-4-3.78.53-9.19,4.84-14.33,4.56-5.18,9.16-10.27,9.16-10.29s-5.06,7.91-3.36,13.68c.45,1.28.66,2.64.62,4,1.34-1,2.65-1.94,3.92-3-4.46-3.14-1.2-9.32,2-15.11,3.39-5.9,6.89-11.61,6.89-11.62s-3.41,8.6-.73,14.11c.67,1.21,1.11,2.53,1.32,3.9,1.11-1.17,2.19-2.36,3.22-3.57-4.76-2.45-2.9-9.06-.88-15.32,2.25-6.36,4.67-12.33,4.64-12.42.13,0-1.8,8.95,1.79,14,.86,1.1,1.54,2.34,2,3.67.86-1.33,1.69-2.67,2.48-4-5.08-1.76-4.42-8.55-3.52-15,1.09-6.55,2.44-12.73,2.44-12.8s-.28,9,4.1,13.5c1.03.97,1.89,2.1,2.56,3.35.4-.91.79-1.83,1.16-2.75.29-.71.56-1.42.83-2.14-5.11-1-5.57-7.38-5.71-13.48,0-6.22.37-12.11.4-12.17s1,8.36,5.83,12c1.12.78,2.12,1.74,2.94,2.84.5-1.93.95-3.86,1.35-5.81-5.07-.13-6.45-6.05-7.44-11.72s-1.32-11.25-1.27-11.31,2.06,7.6,7.09,10.33c1.19.59,2.29,1.38,3.23,2.32.24-2.2.42-4.39.54-6.59-4.87.58-6.94-4.71-8.6-9.86-1.04-3.4-1.9-6.84-2.58-10.33.07,0,2.84,6.8,7.91,8.67,1.22.4,2.36.99,3.38,1.76-.06-2-.15-3.91-.3-5.85,0-.46-.07-.91-.11-1.37-4.39,1.22-7.12-3.49-9.21-8s-3.58-9.34-3.58-9.35,3.4,6,8.35,7.09c1.16.21,2.28.6,3.31,1.17-.42-2.56-.9-5.11-1.47-7.65-3.85,1.56-6.9-2.41-9.3-6.37-1.6-2.74-3.05-5.57-4.35-8.47.05,0,3.81,5.36,8.5,5.7,1.02.04,2.04.23,3,.58-.77-2.67-1.62-5.3-2.55-7.9-3.27,1.65-6.41-1.61-9-5-1.81-2.48-3.48-5.06-5-7.73.05,0,4.13,4.82,8.45,4.54.8-.07,1.61-.04,2.4.11-1.06-2.56-2.2-5.12-3.41-7.68l-.21-.5c-2.71,1.66-5.85-1-8.54-4-1.99-2.28-3.86-4.66-5.6-7.14.06,0,4.44,4.39,8.32,3.62.81-.18,1.64-.22,2.46-.13-2.7-5.7-5.72-11.25-9.05-16.61,3.77,5.53,7.13,11,10.1,16.31.35-.97.84-1.88,1.46-2.71,1.24-1.66,1.27-4.35.83-6.65-.29-1.43-.71-2.83-1.26-4.18,1.99,3.22,3.6,6.66,4.77,10.26,1.53,5.07,1.49,9.88-2,10.48,1.4,2.81,2.68,5.62,3.87,8.43.49-.79,1.08-1.5,1.75-2.14,1.6-1.51,2-4.21,1.94-6.54-.07-1.46-.29-2.9-.66-4.31,1.62,3.45,2.79,7.09,3.5,10.83.86,5.14.21,9.93-3.37,10.32.91,2.58,1.74,5.15,2.5,7.74.6-.65,1.27-1.23,2-1.72,3.85-2.53,3.09-10.2,3-10.78,1.23,3.69,1.96,7.53,2.18,11.42.21,5.3-1.07,10.12-4.81,10.16v.06c.51,2.36.95,4.74,1.34,7.13.71-.57,1.48-1.06,2.3-1.46,4.43-2.06,4.66-10.06,4.59-10.66.8,3.98,1.06,8.05.78,12.1-.49,5.53-2.5,10.41-6.46,9.9.18,2.22.31,4.44.38,6.68.84-.52,1.75-.93,2.69-1.23,4.81-1.47,6.19-9.39,6.27-10.39.3,4.25.02,8.52-.82,12.7-1.2,5.71-4.22,10.74-8.26,9.48-.12,2-.28,4.1-.51,6.14,1-.47,2.06-.8,3.15-1,5.34-.87,7.9-9.25,8-10.06-.28,4.54-1.18,9.02-2.69,13.31-2.11,6-6.11,10.93-10.23,8.75-.39,1.86-.83,3.73-1.32,5.58,1.18-.39,2.42-.6,3.66-.64,5.82-.16,9.8-9,9.92-9.51-.95,4.78-2.58,9.41-4.86,13.72-3.2,6.09-8.3,10.87-12.31,7.63-.62,1.64-1.29,3.27-2,4.88,1.35-.27,2.72-.33,4.09-.19,6.2.68,11.85-8.28,11.91-8.62-1.74,4.93-4.22,9.58-7.34,13.78-4.43,6-10.69,10.33-14.32,6.11-.81,1.37-1.65,2.71-2.52,4,1.38-.08,2.76.05,4.1.37,6.18,1.57,13.42-6.89,13.3-7-2.56,4.75-5.85,9.08-9.75,12.81-5.46,5.36-12.49,8.75-15.42,4-1.05,1.23-2.14,2.43-3.27,3.62,1.4.13,2.77.46,4.07,1,5.64,2.31,13.77-4.17,14.51-4.94-3.37,4.28-7.36,8.04-11.83,11.15-6.59,4.53-14.2,6.62-16.34,1.64-1.3,1.05-2.64,2.06-4,3.05,1.4.33,2.75.86,4,1.57,5.28,3.13,14.62-2,15.56-2.65-4.19,3.72-8.91,6.8-14,9.13-7.51,3.4-15.67,4.14-16.93-1-1.52.79-3.07,1.56-4.64,2.28,1.32.54,2.56,1.27,3.68,2.15,4.79,3.92,15.16.52,16.33,0-4.96,2.98-10.33,5.19-15.94,6.58-8.26,2-16.72,1.26-17.12-3.89-9.65,2.81-19.7,4.01-29.74,3.53l-.18-1.66Z"/>
    <path class="cls-12" d="m163.61,16.98l5.9,11.94,13.19,1.91-9.55,9.34,2.26,13.11-11.8-6.19-11.79,6.19,2.25-13.11-9.55-9.29,13.19-1.91,5.9-11.99Z"/>
    <polygon class="cls-5" points="127.04 40.25 123.51 33.09 119.97 40.25 112.05 41.4 117.78 46.97 116.43 54.84 123.51 51.12 130.58 54.84 129.23 46.97 134.96 41.4 127.04 40.25"/>
    <polygon class="cls-5" points="215.17 41.4 207.25 40.25 203.72 33.09 200.18 40.25 192.27 41.4 197.99 46.97 196.64 54.84 203.72 51.12 210.79 54.84 209.44 46.97 215.17 41.4"/>
    <polygon class="cls-7" points="107.37 58.92 105.25 54.62 103.13 58.92 98.38 59.61 101.81 62.95 101 67.67 105.25 65.45 109.49 67.67 108.68 62.95 112.12 59.61 107.37 58.92"/>
    <polygon class="cls-7" points="228.84 59.61 224.09 58.92 221.97 54.62 219.85 58.92 215.1 59.61 218.54 62.95 217.73 67.67 221.97 65.45 226.22 67.67 225.41 62.95 228.84 59.61"/>
    <g>
      <path class="cls-4" d="m49.93,169.95v-9.91h-3.5v-2.07h9.5v2.07h-3.51v9.91h-2.49Z"/>
      <path class="cls-4" d="m67.83,163.97c0,3.81-2.23,6.19-5.77,6.19s-5.78-2.38-5.78-6.19,2.22-6.2,5.78-6.2,5.77,2.4,5.77,6.2Zm-9,0c0,2.5,1.25,4.09,3.22,4.09s3.21-1.59,3.21-4.09-1.25-4.11-3.21-4.11-3.21,1.59-3.21,4.11h0Z"/>
      <path class="cls-4" d="m74.44,157.97c2.16-.13,4.02,1.52,4.15,3.68,0,.14,0,.29,0,.43.06,2.21-1.68,4.05-3.89,4.11-.13,0-.25,0-.38,0h-2.39v3.77h-2.49v-12l5,.02Zm-2.51,6.25h1.82c1.18,0,2.13-.95,2.13-2.13,0-1.18-.95-2.13-2.13-2.13h-1.83v4.26Z"/>
      <path class="cls-4" d="m88.34,157.97c3.59,0,5.71,2.15,5.71,5.95s-2.12,6-5.71,6h-4.62v-12l4.62.05Zm-2.11,9.91h1.81c2.24,0,3.45-1.36,3.45-4s-1.24-3.89-3.45-3.89h-1.81v7.89Z"/>
      <path class="cls-4" d="m103.59,169.95h-7.93v-12h7.93v2.07h-5.42v2.89h5.12v1.93h-5.12v3h5.42v2.11Z"/>
      <path class="cls-4" d="m108.67,169.95l-4-12h2.81l2.73,9.4h.06l2.74-9.4h2.73l-4,12h-3.07Z"/>
      <path class="cls-4" d="m127.93,163.97c0,3.81-2.23,6.19-5.78,6.19s-5.78-2.38-5.78-6.19,2.23-6.2,5.78-6.2,5.78,2.4,5.78,6.2Zm-9,0c0,2.5,1.25,4.09,3.22,4.09s3.21-1.59,3.21-4.09-1.25-4.11-3.21-4.11-3.22,1.59-3.22,4.11Z"/>
      <path class="cls-4" d="m134.56,157.97c2.16-.13,4.02,1.52,4.15,3.68,0,.14,0,.29,0,.43.06,2.21-1.68,4.05-3.89,4.11-.13,0-.26,0-.39,0h-2.36v3.77h-2.51v-12l5,.02Zm-2.49,6.25h1.86c1.18,0,2.13-.95,2.13-2.13,0-1.18-.95-2.13-2.13-2.13h-1.83l-.04,4.26Z"/>
      <path class="cls-4" d="m142.15,166.54c.12,1,1.15,1.64,2.47,1.64s2.25-.64,2.25-1.52-.57-1.21-2-1.54l-1.56-.34c-2.21-.47-3.3-1.59-3.3-3.34,0-2.21,1.91-3.67,4.58-3.67s4.54,1.43,4.59,3.6h-2.35c-.09-1-1-1.63-2.23-1.63s-2.07.59-2.07,1.48c0,.74.59,1.15,2,1.47l1.46.31c2.4.51,3.44,1.54,3.44,3.37,0,2.32-1.88,3.79-4.85,3.79s-4.72-1.37-4.79-3.62h2.36Z"/>
      <path class="cls-4" d="m159.18,157.97c3.6,0,5.72,2.15,5.72,5.95s-2.12,6-5.72,6h-4.61v-12l4.61.05Zm-2.1,9.91h1.85c2.24,0,3.45-1.36,3.45-4s-1.25-3.89-3.45-3.89h-1.81l-.04,7.89Z"/>
      <path class="cls-4" d="m174.44,169.95h-7.93v-12h7.93v2.07h-5.43v2.89h5.12v1.93h-5.12v3h5.43v2.11Z"/>
      <path class="cls-4" d="m179.51,169.95l-4-12h2.8l2.74,9.4h.06l2.74-9.4h2.73l-4,12h-3.07Z"/>
      <path class="cls-4" d="m195.72,169.95h-7.94v-12h7.94v2.07h-5.43v2.89h5.12v1.93h-5.12v3h5.43v2.11Z"/>
      <path class="cls-4" d="m205.27,169.95h-7.74v-12h2.5v9.91h5.24v2.09Z"/>
      <path class="cls-4" d="m217.44,163.97c0,3.81-2.23,6.19-5.78,6.19s-5.73-2.38-5.73-6.19,2.23-6.2,5.78-6.2,5.73,2.4,5.73,6.2Zm-9,0c0,2.5,1.25,4.09,3.22,4.09s3.21-1.59,3.21-4.09-1.25-4.11-3.21-4.11-3.22,1.59-3.22,4.11Z"/>
      <path class="cls-4" d="m224.05,157.97c2.16-.13,4.02,1.52,4.15,3.68,0,.14,0,.29,0,.43.05,2.21-1.69,4.04-3.9,4.1-.12,0-.25,0-.37,0h-2.36v3.77h-2.51v-12l4.99.03Zm-2.49,6.25h1.81c1.18,0,2.13-.95,2.13-2.13,0-1.18-.95-2.13-2.13-2.13h-1.83v4.26Z"/>
      <path class="cls-4" d="m242.36,169.95h-2.23v-8.08h-.07l-3.26,8h-1.57l-3.26-8h-.04v8.08h-2.24v-12h2.91l3.4,8.5h.07l3.4-8.5h2.91l-.02,12Z"/>
      <path class="cls-4" d="m252.29,169.95h-7.94v-12h7.94v2.07h-5.43v2.89h5.12v1.93h-5.12v3h5.43v2.11Z"/>
      <path class="cls-4" d="m254.09,169.95v-12h2.1l5.59,7.81h.07v-7.79h2.4v12h-2.08l-5.6-7.84h-.08v7.84l-2.4-.02Z"/>
      <path class="cls-4" d="m269.14,169.95v-9.91h-3.5v-2.07h9.52v2.07h-3.51v9.91h-2.51Z"/>
      <path class="cls-4" d="m119.27,184.36c0-3.86,2.2-6.19,5.67-6.19,2.69-.19,5.04,1.82,5.27,4.51h-2.44c-.18-1.42-1.4-2.47-2.83-2.44-1.89,0-3.11,1.59-3.11,4.11s1.2,4.14,3.12,4.14c1.39.08,2.61-.91,2.82-2.29h2.44c-.28,2.67-2.33,4.36-5.27,4.36-3.48,0-5.67-2.33-5.67-6.2Z"/>
      <path class="cls-4" d="m142.93,184.37c0,3.81-2.23,6.19-5.78,6.19s-5.78-2.38-5.78-6.19,2.23-6.2,5.78-6.2,5.78,2.38,5.78,6.2Zm-9,0c0,2.5,1.25,4.09,3.22,4.09s3.21-1.59,3.21-4.09-1.25-4.11-3.21-4.11-3.22,1.59-3.22,4.11Z"/>
      <path class="cls-4" d="m157.23,190.35h-2.23v-8.08h-.07l-3.25,8h-1.58l-3.25-8h-.07v8.08h-2.23v-12h2.9l3.41,8.5h.07l3.41-8.5h2.9v12Z"/>
      <path class="cls-4" d="m164.22,178.37c2.16-.13,4.02,1.52,4.15,3.68,0,.14,0,.29,0,.43.06,2.21-1.68,4.05-3.89,4.11-.13,0-.25,0-.38,0h-2.37v3.77h-2.5v-12l4.99.02Zm-2.49,6.25h1.82c1.18,0,2.13-.95,2.13-2.13,0-1.18-.95-2.13-2.13-2.13h-1.83v4.26Z"/>
      <path class="cls-4" d="m175.66,187.45h-4.21l-.91,2.9h-2.61l4.15-12h2.95l4.17,12h-2.67l-.87-2.9Zm-3.67-1.88h3.13l-1.53-4.9h-.06l-1.54,4.9Z"/>
      <path class="cls-4" d="m180.46,190.35v-12h2.09l5.6,7.81h.06v-7.79h2.4v12h-2.07l-5.61-7.86h-.07v7.84h-2.4Z"/>
      <path class="cls-4" d="m196.01,190.35v-4.47l-4.17-7.51h2.73l2.68,5.12h.06l2.69-5.12h2.69l-4.18,7.51v4.47h-2.5Z"/>
    </g>
  </g>
</svg>