<svg width="26" height="26" viewBox="0 0 26 26" fill="none" xmlns="http://www.w3.org/2000/svg">
<path d="M3.90468 9.9533C3.34017 10.3228 3 10.952 3 11.6267V21.1818C3 21.3988 3.0878 21.6069 3.24408 21.7604C3.40036 21.9138 3.61232 22 3.83333 22H22.1667C22.3877 22 22.5996 21.9138 22.7559 21.7604C22.9122 21.6069 23 21.3988 23 21.1818V11.6267C23 10.952 22.6598 10.3228 22.0953 9.9533L14.0953 4.71694C13.43 4.28147 12.57 4.28147 11.9047 4.71694L3.90468 9.9533Z" stroke="#333249" stroke-linecap="round" stroke-linejoin="round"/>
<path d="M20 13L14.2728 17H11.7272L6 13" stroke="#6F56F5" stroke-linecap="round" stroke-linejoin="round"/>
</svg>
