<?xml version="1.0" encoding="UTF-8"?>
<svg id="Layer_2" data-name="Layer 2" xmlns="http://www.w3.org/2000/svg" viewBox="0 0 154.8 195">
  <defs>
    <style>
      .cls-1 {
        fill: #fff;
      }

      .cls-2 {
        fill: #18aad1;
      }

      .cls-3 {
        fill: #0460b5;
      }

      .cls-4 {
        fill: #2ad2ff;
      }
    </style>
  </defs>
  <g id="Layer_1-2" data-name="Layer 1">
    <path class="cls-3" d="m133.47,189h11.1l-4.15-10.5,4.15-10.5h-15.6l4.5,5v16Z"/>
    <path class="cls-3" d="m20.57,189h-11.1l4.15-10.5-4.15-10.5h15.6l-4.5,5v16Z"/>
    <path class="cls-3" d="m131.47,174H22.47v21h109v-21Z"/>
    <path class="cls-1" d="m37.11,181.54c.55.27,1,.73,1.27,1.18.27.55.45,1.18.45,1.73,0,.64-.18,1.18-.45,1.73-.27.54-.73.91-1.27,1.18-.55.27-1.18.45-1.82.45h-2.82v-6.82h2.82c.64.09,1.27.18,1.82.54Zm-.64,4.91c.36-.18.64-.46.82-.82.36-.73.36-1.64,0-2.36-.18-.36-.45-.64-.82-.82-.36-.18-.73-.27-1.18-.27h-1.55v4.54h1.55c.36,0,.82-.09,1.18-.27Z"/>
    <path class="cls-1" d="m39.92,181.09h5v1.09h-3.64v1.73h3.27v1.09h-3.27v1.73h3.82v1.09h-5.18v-6.73Z"/>
    <path class="cls-1" d="m49.65,182.36c-.27-.09-.64-.18-1-.18-.27,0-.55.09-.73.18-.18.09-.27.27-.27.45s.09.36.18.46.27.27.45.27c.27.09.55.18.82.27.36.09.73.27,1.09.36.27.18.55.36.73.64.18.27.36.64.27,1.09,0,.36-.09.82-.36,1.09-.27.27-.55.55-.91.73-.45.18-.91.27-1.36.27-.55,0-1.09-.09-1.55-.27-.45-.18-.91-.45-1.36-.82l.55-1.09c.36.27.73.55,1.18.73.36.18.82.27,1.18.27.27,0,.64-.09.82-.18.36-.18.36-.64.18-1l-.09-.09c-.18-.09-.27-.27-.45-.27-.18-.09-.45-.18-.82-.27-.36-.09-.73-.27-1.09-.36-.27-.09-.55-.36-.73-.54-.18-.27-.36-.64-.27-1,0-.36.09-.73.27-1,.27-.27.55-.55.91-.73.45-.18.91-.27,1.36-.27s.91.09,1.27.18c.36.09.82.27,1.18.54l-.55,1.09c-.18-.27-.55-.46-.91-.54Z"/>
    <path class="cls-1" d="m52.56,181.09h1.27v6.82h-1.27v-6.82Z"/>
    <path class="cls-1" d="m60.11,184.46h1.09v2.64c-.36.27-.82.45-1.27.64-.45.18-.91.27-1.45.27-.64,0-1.27-.18-1.82-.46-.55-.27-1-.73-1.27-1.27-.36-.55-.45-1.18-.45-1.82s.18-1.27.45-1.73c.36-.54.82-1,1.36-1.27.55-.27,1.18-.46,1.82-.46.45,0,1,.09,1.45.27.45.18.91.36,1.18.73l-.73,1c-.27-.27-.55-.46-.91-.54-.36-.09-.64-.18-1-.18-.45,0-.82.09-1.18.27-1.09.64-1.45,2.09-.82,3.18.45.73,1.18,1.18,2,1.18.27,0,.45,0,.73-.09.27-.09.55-.18.73-.36l.09-2Z"/>
    <path class="cls-1" d="m67.56,181.09h1.27v6.82h-1.18l-3.55-4.73v4.73h-1.27v-6.82h1.27l3.55,4.73-.09-4.73Z"/>
    <path class="cls-1" d="m74.74,187.91l-1.18-2h-1.82v2h-1.27v-6.82h2.82c.73-.09,1.45.18,2.09.54.45.46.73,1.09.73,1.73,0,.45-.09.91-.36,1.36-.27.36-.64.64-1,.82l1.55,2.27-1.55.09Zm-3-3.18h1.55c.45,0,.82-.09,1.18-.36.27-.27.36-.55.36-.91s-.09-.73-.36-.91c-.36-.18-.73-.36-1.09-.27h-1.64v2.45Z"/>
    <path class="cls-1" d="m79.11,186.36c.36.27.82.45,1.18.45.45,0,.91-.18,1.18-.45.27-.36.45-.82.45-1.27v-4h1.27v4c0,.54-.09,1.09-.36,1.54-.27.46-.64.82-1,1-.45.27-1,.36-1.55.36s-1.09-.09-1.64-.36c-.45-.18-.82-.54-1-1-.27-.45-.36-1-.36-1.54v-4h1.27v4c.09.45.27.91.55,1.27Z"/>
    <path class="cls-1" d="m88.11,182.36c-.27-.09-.64-.18-1-.18-.27,0-.55.09-.73.18-.18.09-.27.27-.27.45s.09.36.18.46c.09.09.27.27.45.27.27.09.55.18.82.27.36.09.73.27,1.09.36.27.18.55.36.73.64s.36.64.27,1.09c0,.36-.09.82-.36,1.09-.27.27-.55.55-.91.73-.45.18-.91.27-1.36.27-.55,0-1.09-.09-1.55-.27-.45-.18-.91-.45-1.36-.82l.55-1.09c.36.27.73.55,1.18.73.36.18.82.27,1.18.27.27,0,.64-.09.82-.18.36-.18.36-.64.18-1l-.09-.09c-.18-.09-.27-.27-.45-.27-.18-.09-.45-.18-.82-.27-.36-.09-.73-.27-1.09-.36-.27-.09-.55-.36-.73-.54-.18-.27-.36-.64-.27-1,0-.36.09-.73.27-1,.27-.27.55-.55.91-.73.45-.18.91-.27,1.36-.27s.91.09,1.27.18c.36.09.82.27,1.18.54l-.55,1.09c-.18-.27-.55-.46-.91-.54Z"/>
    <path class="cls-1" d="m91.01,181.09h1.27v2.91h3.36v-2.91h1.27v6.82h-1.27v-2.73h-3.36v2.73h-1.27v-6.82Z"/>
    <path class="cls-1" d="m99.38,186.73c.09.09.18.27.18.54,0,.18-.09.36-.18.55-.09.09-.27.18-.45.18s-.36-.09-.45-.18c-.09-.18-.18-.36-.18-.55s.09-.36.18-.54c.09-.09.27-.18.45-.18s.36.09.45.18Z"/>
    <path class="cls-1" d="m103.01,183.73c-.36,0-.73.18-1,.45-.27.27-.36.73-.36,1.09,0,.46.09.82.36,1.09.27.27.64.46,1,.46.55,0,1.09-.18,1.36-.64l.82.64c-.27.36-.54.64-.91.82-.45.18-.91.27-1.36.27s-.91-.09-1.36-.36c-.36-.18-.73-.55-.91-.91-.46-.82-.46-1.91,0-2.73.18-.36.54-.73.91-.91.45-.18.91-.36,1.36-.36s.91.09,1.27.27c.36.18.64.36.91.73l-.73.73c-.27-.36-.82-.64-1.36-.64Z"/>
    <path class="cls-1" d="m109.83,183c.36.18.73.55,1,.91.27.46.36.91.36,1.36s-.09,1-.36,1.36c-.27.36-.54.73-1,.91-.46.18-.91.36-1.46.36s-1-.09-1.45-.36c-.36-.18-.73-.55-1-.91-.27-.45-.36-.91-.36-1.36s.09-1,.36-1.36c.27-.36.54-.73,1-.91.45-.27.91-.36,1.45-.36s1,.09,1.46.36Zm-2.46,1.18c-.54.64-.54,1.64,0,2.27.27.27.64.45,1.09.45.36,0,.82-.18,1.09-.45.55-.64.55-1.64,0-2.27-.27-.27-.64-.45-1.09-.45s-.82.09-1.09.45Z"/>
    <path class="cls-1" d="m120.47,183.18c.36.36.55.91.55,1.46v3.27h-1.27v-2.91c0-.36-.09-.64-.27-.91-.18-.18-.54-.36-.82-.36-.36,0-.73.18-1,.45-.27.27-.36.64-.36,1.09v2.55h-1.27v-2.82c0-.36-.09-.64-.27-.91-.18-.18-.55-.36-.82-.36-.36,0-.73.18-1,.45-.27.27-.36.73-.27,1.09v2.55h-1.27v-5.18h1.27v1c.64-1,2-1.27,3-.73.27.18.55.54.64.91.27-.82,1.09-1.27,1.91-1.27.45,0,.91.27,1.27.64Z"/>
    <path d="m67.61,130v-9.02h3.23v-1.65h-8.34v1.65h3.23v9.02h1.87Zm9.4.19c3.18,0,5.46-2.34,5.46-5.52s-2.27-5.52-5.46-5.52-5.46,2.34-5.46,5.52,2.26,5.52,5.46,5.52Zm0-1.66c-2.16,0-3.54-1.66-3.54-3.86s1.38-3.86,3.54-3.86,3.54,1.65,3.54,3.86-1.39,3.86-3.54,3.86Zm9.11,1.47v-4h2.83c2.22,0,3.47-1.52,3.47-3.33s-1.23-3.34-3.47-3.34h-4.7v10.67h1.87Zm2.58-5.65h-2.58v-3.38h2.58c1.06,0,1.81.67,1.81,1.7s-.75,1.68-1.81,1.68ZM5.6,148.19c2.14,0,3.47-1.14,4.29-2.42l-1.6-.8c-.51.88-1.55,1.55-2.69,1.55-2.11,0-3.68-1.63-3.68-3.86s1.57-3.86,3.68-3.86c1.14,0,2.18.66,2.69,1.55l1.58-.83c-.78-1.28-2.13-2.38-4.27-2.38-3.15,0-5.6,2.22-5.6,5.52s2.45,5.52,5.6,5.52Zm12.22-.19v-1.65h-4.7v-9.02h-1.87v10.67h6.58Zm6.15.19c3.18,0,5.46-2.34,5.46-5.52s-2.27-5.52-5.46-5.52-5.46,2.34-5.46,5.52,2.26,5.52,5.46,5.52Zm0-1.66c-2.16,0-3.54-1.66-3.54-3.86s1.38-3.86,3.54-3.86,3.54,1.65,3.54,3.86-1.39,3.86-3.54,3.86Zm11.87,1.66c3.1,0,4.62-1.78,4.62-4.42v-6.45h-1.9v6.4c0,1.7-.94,2.8-2.72,2.8s-2.72-1.1-2.72-2.8v-6.4h-1.9v6.45c0,2.64,1.54,4.42,4.62,4.42Zm10.88-.19c3.33,0,5.57-2.19,5.57-5.34s-2.24-5.33-5.58-5.33h-3.97v10.67h3.98Zm-.02-1.65h-2.1v-7.38h2.11c2.37,0,3.65,1.63,3.65,3.68s-1.34,3.7-3.66,3.7Zm16.65,1.84c2.14,0,3.47-1.14,4.29-2.42l-1.6-.8c-.51.88-1.55,1.55-2.69,1.55-2.11,0-3.68-1.63-3.68-3.86s1.57-3.86,3.68-3.86c1.14,0,2.18.66,2.69,1.55l1.58-.83c-.78-1.28-2.13-2.38-4.27-2.38-3.15,0-5.6,2.22-5.6,5.52s2.45,5.52,5.6,5.52Zm10.76,0c3.18,0,5.46-2.34,5.46-5.52s-2.27-5.52-5.46-5.52-5.46,2.34-5.46,5.52,2.26,5.52,5.46,5.52Zm0-1.66c-2.16,0-3.54-1.66-3.54-3.86s1.38-3.86,3.54-3.86,3.54,1.65,3.54,3.86-1.39,3.86-3.54,3.86Zm16.49,1.47v-10.67h-1.87v7.39l-5.46-7.39h-1.92v10.67h1.87v-7.63l5.57,7.63h1.81Zm5.93.19c2.86,0,4.13-1.54,4.13-3.31,0-3.97-6.21-2.74-6.21-4.74,0-.78.7-1.33,1.79-1.33s2.26.38,3.1,1.23l1.06-1.39c-.98-.96-2.34-1.5-3.98-1.5-2.35,0-3.89,1.36-3.89,3.14,0,3.92,6.21,2.53,6.21,4.77,0,.72-.59,1.47-2.13,1.47s-2.66-.7-3.38-1.49l-1.06,1.46c.96.99,2.38,1.7,4.35,1.7Zm10.46,0c3.1,0,4.62-1.78,4.62-4.42v-6.45h-1.9v6.4c0,1.7-.94,2.8-2.72,2.8s-2.72-1.1-2.72-2.8v-6.4h-1.9v6.45c0,2.64,1.54,4.42,4.62,4.42Zm13.34-.19v-1.65h-4.7v-9.02h-1.87v10.67h6.58Zm4.47,0v-9.02h3.23v-1.65h-8.34v1.65h3.23v9.02h1.87Zm6.69,0v-10.67h-1.87v10.67h1.87Zm11.52,0v-10.67h-1.87v7.39l-5.46-7.39h-1.92v10.67h1.87v-7.63l5.57,7.63h1.81Zm7.4.21c1.84,0,3.34-.78,4.38-1.95v-3.98h-5.06v1.65h3.2v1.65c-.48.46-1.44.96-2.53.96-2.11,0-3.68-1.63-3.68-3.86s1.57-3.86,3.68-3.86c1.18,0,2.19.62,2.77,1.42l1.52-.88c-.85-1.22-2.21-2.21-4.29-2.21-3.1,0-5.6,2.16-5.6,5.52s2.5,5.54,5.6,5.54Zm-104.74,17.98c2.86,0,4.13-1.54,4.13-3.31,0-3.97-6.21-2.74-6.21-4.74,0-.78.7-1.33,1.79-1.33s2.26.38,3.1,1.23l1.06-1.39c-.98-.96-2.34-1.5-3.98-1.5-2.35,0-3.89,1.36-3.89,3.14,0,3.92,6.21,2.53,6.21,4.77,0,.72-.59,1.47-2.13,1.47s-2.66-.7-3.38-1.49l-1.06,1.46c.96.99,2.38,1.7,4.35,1.7Zm13.15-.19v-1.65h-5.44v-2.98h5.33v-1.65h-5.33v-2.75h5.44v-1.65h-7.31v10.67h7.31Zm10.19,0l-2.62-4.19c1.3-.21,2.54-1.25,2.54-3.14,0-1.98-1.39-3.34-3.5-3.34h-4.69v10.67h1.87v-3.98h1.87l2.35,3.98h2.18Zm-3.82-5.63h-2.58v-3.39h2.58c1.06,0,1.82.66,1.82,1.68s-.77,1.71-1.82,1.71Zm10.88,5.63l4.19-10.67h-2.13l-3.23,8.62-3.23-8.62h-2.13l4.19,10.67h2.34Zm7.21,0v-10.67h-1.87v10.67h1.87Zm7.4.19c2.14,0,3.47-1.14,4.29-2.42l-1.6-.8c-.51.88-1.55,1.55-2.69,1.55-2.11,0-3.68-1.63-3.68-3.86s1.57-3.86,3.68-3.86c1.14,0,2.18.66,2.69,1.55l1.58-.83c-.78-1.28-2.13-2.38-4.27-2.38-3.15,0-5.6,2.22-5.6,5.52s2.45,5.52,5.6,5.52Zm13.08-.19v-1.65h-5.44v-2.98h5.33v-1.65h-5.33v-2.75h5.44v-1.65h-7.31v10.67h7.31Zm5.59.19c2.86,0,4.13-1.54,4.13-3.31,0-3.97-6.21-2.74-6.21-4.74,0-.78.7-1.33,1.79-1.33s2.26.38,3.1,1.23l1.06-1.39c-.98-.96-2.34-1.5-3.98-1.5-2.35,0-3.89,1.36-3.89,3.14,0,3.92,6.21,2.53,6.21,4.77,0,.72-.59,1.47-2.13,1.47s-2.66-.7-3.38-1.49l-1.06,1.46c.96.99,2.38,1.7,4.35,1.7Z"/>
    <path class="cls-2" d="m77.23,68.67c-.19,0-.19-.2,0,0l-.94-.6-.19-.2-22.14-16.87s-.19,0-.19-.2l-.38-.4-.19-.2h-.38l-6.38-4.82,12.57,2.01c.56,0,.75.2,1.31.4.19,0,.56.2.56.2.56.2.75.4,1.13.6.38.2.56.4.94.6.19.2.56.4.56.6.19.2.38.2.56.4.38.2.56.4.56.6.56.6.94,1.2,1.5,1.61l9.94,15.06.19.2.94,1Z"/>
    <path class="cls-4" d="m77.23,91.96l-.94-1.61-.19-.2-29.45-44.77,6.38,4.82,1.13.8,22.14,16.87h.19l.75.6s.19,0,.19.2l.94-.8,29.83-22.49-30.01,44.97-.19.2-.75,1.41Z"/>
    <path class="cls-2" d="m77.23,61.04l-.94-1.61-.19-.2-7.32-10.84,7.32,1.61h.19l.94.2.94-.2,7.13-1.81-7.13,11.24v.2l-.94,1.41Z"/>
    <path class="cls-2" d="m108.37,45.18l-9.38,1.41-3.56.6c-2.81.4-5.44,2.01-7.13,4.62l-9.94,15.26-.19.2-.94,1.41,1.13-1.2.19-.2-1.31,1.41,25.33-19.27,5.82-4.22Z"/>
    <path class="cls-4" d="m81.92,13.45c0,8.83-14.26,13.45-14.26,22.89-.19,2.21.38,4.42,1.31,6.42,0,0-5.44-5.62-5.44-11.65s5.25-15.06,5.25-15.06c0,4.02,1.5,5.22,3,5.42h.19c1.69,0,2.63-1.41,2.63-3.41s-2.06-4.02-2.06-8.03,4.5-10.04,4.5-10.04c3.19,4.02,4.88,8.63,4.88,13.45Z"/>
    <path class="cls-4" d="m77.98,45.58c-4.5,0-7.88-3.81-7.88-8.43v-.2c0-10.24,13.32-11.24,13.32-25.1.38.6,3.94,5.82,3.94,11.44,0,7.03-6.19,8.83-6.19,12.25,0,1.41.56,2.41,2.44,2.41.19,0,.38,0,.56-.2,3.56-1.61,6-5.22,6.19-9.44,0,.2,1.88,17.27-12.38,17.27Z"/>
    <path class="cls-2" d="m83.8,37.95c.19,0,.38,0,.56-.2-1.88.6-8.82,2.41-8.82-2.81,0-6.42,10.32-7.83,10.32-13.25,0-3.41-.75-6.83-2.44-9.84.38.6,3.94,5.82,3.94,11.44,0,7.03-6.19,8.83-6.19,12.25.19,1.41.94,2.41,2.63,2.41Z"/>
    <path class="cls-2" d="m77.85,17.07c0,5.02-6,4.62-6.38,4.42h.56c1.69,0,2.63-1.41,2.63-3.41s-2.06-4.02-2.06-8.03,4.5-10.04,4.5-10.04c-1.5,2.61-2.25,5.42-2.44,8.23,0,4.62,3.19,5.02,3.19,8.83Z"/>
    <path class="cls-4" d="m74.63,105.02l-4.34-3.09h5.32l1.77-5.56,1.58,5.56h5.32l-4.34,3.09,1.58,5.35-4.34-3.29-4.54,3.29,1.97-5.35Z"/>
    <path class="cls-4" d="m97.81,105.02l-4.34-3.09h5.32l1.78-5.56,1.58,5.56h5.32l-4.34,3.09,1.58,5.35-4.34-3.29-4.53,3.29,1.97-5.35Z"/>
    <path class="cls-4" d="m120.81,105.02l-4.34-3.09h5.32l1.78-5.56,1.58,5.56h5.32l-4.34,3.09,1.58,5.35-4.34-3.29-4.54,3.29,1.97-5.35Z"/>
    <path class="cls-4" d="m50.81,105.02l-4.34-3.09h5.32l1.77-5.56,1.58,5.56h5.32l-4.34,3.09,1.58,5.35-4.34-3.29-4.34,3.29,1.77-5.35Z"/>
    <path class="cls-4" d="m27.81,105.02l-4.34-3.09h5.32l1.77-5.56,1.58,5.56h5.32l-4.34,3.09,1.58,5.35-4.34-3.29-4.34,3.29,1.77-5.35Z"/>
  </g>
</svg>