<svg xmlns="http://www.w3.org/2000/svg" width="174" height="28" viewBox="0 0 174 28" fill="none"><path d="M44.8289 23.5498C51.1147 23.5498 55.689 19.2612 55.689 13.2749C55.689 7.28866 51.1147 3 44.8289 3C38.5743 3 34 7.28866 34 13.2749C34 19.2612 38.5743 23.5498 44.8289 23.5498ZM44.8289 19.7973C41.0015 19.7973 38.5432 16.9679 38.5432 13.2749C38.5432 9.55212 41.0015 6.75258 44.8289 6.75258C48.6564 6.75258 51.1458 9.55212 51.1458 13.2749C51.1458 16.9679 48.6564 19.7973 44.8289 19.7973Z" fill="black"></path><path d="M71.2008 23.1924L70.5779 21.1129H70.3348C69.8384 21.8691 69.1344 22.4556 68.2228 22.8725C67.3111 23.2797 66.2729 23.4833 65.108 23.4833C63.1125 23.4833 61.6083 22.9743 60.5953 21.9564C59.5824 20.9287 59.0759 19.4551 59.0759 17.5355L59.1224 7.59221H63.7566L63.7101 16.4303C63.7101 17.6034 63.9279 18.4856 64.3635 19.077C64.799 19.6587 65.4929 19.9495 66.4451 19.9495C67.7416 19.9495 68.6786 19.5375 69.256 18.7135C69.8334 17.8797 70.1221 16.503 70.1221 14.5835L70.1686 7.59221H74.8028L74.7563 23.1924H71.2008Z" fill="black"></path><path d="M86.7748 19.9495C87.5852 19.9495 88.5576 19.7799 89.6921 19.4406V22.7416C88.5373 23.2361 87.1192 23.4833 85.4377 23.4833C83.5841 23.4833 82.2318 23.0373 81.3809 22.1454C80.5402 21.2438 80.1198 19.8962 80.1198 18.1027V11.0115H77.9015V9.13552L80.4541 7.65222L81.7912 4.22026H84.754V7.6813H89.5098V11.0115H84.754V18.1027C84.754 18.7328 84.9363 19.1982 85.301 19.4987C85.6758 19.7993 86.1671 19.9495 86.7748 19.9495Z" fill="black"></path><path d="M92.8572 28V8.30126H97.1515V10.2967C97.6286 9.64147 98.3236 9.06567 99.2363 8.5693C100.149 8.07293 101.176 7.82474 102.317 7.82474C104.35 7.82474 105.978 8.55937 107.202 10.0286C108.447 11.478 109.069 13.3841 109.069 15.7469C109.069 18.1096 108.447 20.0256 107.202 21.4948C105.978 22.9443 104.35 23.669 102.317 23.669C101.197 23.669 100.191 23.4406 99.2986 22.984C98.4273 22.5074 97.7531 21.9118 97.2759 21.197V23.7881V28H92.8572ZM104.433 15.7469C104.433 12.5899 103.209 11.0115 100.761 11.0115C99.6201 11.0115 98.7177 11.4185 98.0539 12.2325C97.4108 13.0466 97.0892 14.218 97.0892 15.7469C97.0892 17.2558 97.4108 18.4173 98.0539 19.2314C98.7177 20.0454 99.6201 20.4525 100.761 20.4525C103.209 20.4525 104.433 18.8839 104.433 15.7469Z" fill="black"></path><path d="M111.309 15.7469C111.309 13.404 112.076 11.5078 113.611 10.0584C115.146 8.58916 117.107 7.85453 119.492 7.85453C121.899 7.85453 123.859 8.58916 125.374 10.0584C126.909 11.5078 127.676 13.404 127.676 15.7469C127.676 18.1294 126.919 20.0454 125.405 21.4948C123.89 22.9443 121.92 23.669 119.492 23.669C117.148 23.669 115.198 22.9244 113.642 21.4353C112.086 19.9263 111.309 18.0302 111.309 15.7469ZM122.106 19.1718C122.749 18.3975 123.071 17.2757 123.071 15.8064C123.071 14.3372 122.749 13.2054 122.106 12.4112C121.484 11.5972 120.613 11.1902 119.492 11.1902C118.372 11.1902 117.491 11.5972 116.847 12.4112C116.225 13.2054 115.914 14.3372 115.914 15.8064C115.914 17.2757 116.225 18.3975 116.847 19.1718C117.491 19.9263 118.372 20.3036 119.492 20.3036C120.613 20.3036 121.484 19.9263 122.106 19.1718Z" fill="black"></path><path d="M129.596 19.3505L133.611 18.1294C133.735 18.6655 134.036 19.2215 134.513 19.7973C134.969 20.3532 135.851 20.6312 137.158 20.6312C137.884 20.6312 138.455 20.4922 138.869 20.2142C139.305 19.9362 139.523 19.5788 139.523 19.142C139.523 18.7251 139.378 18.3975 139.087 18.1592C138.797 17.9011 138.299 17.7026 137.594 17.5636L135.384 17.1466C133.579 16.8091 132.262 16.3028 131.432 15.6277C130.623 14.9527 130.219 13.9301 130.219 12.5601C130.219 11.1306 130.82 9.98893 132.024 9.13517C133.227 8.28141 134.855 7.85453 136.909 7.85453C138.61 7.85453 140.021 8.19206 141.141 8.86713C142.282 9.54219 143.06 10.3463 143.475 11.2795L139.834 12.858C139.295 11.4681 138.247 10.7732 136.691 10.7732C135.986 10.7732 135.436 10.9023 135.042 11.1604C134.669 11.4185 134.482 11.7659 134.482 12.2028C134.482 12.6197 134.627 12.9374 134.918 13.1558C135.229 13.3543 135.799 13.5231 136.629 13.6621L138.776 14.0493C142.344 14.7045 144.128 16.2532 144.128 18.6953C144.128 20.2043 143.485 21.4055 142.199 22.299C140.913 23.1726 139.15 23.6094 136.909 23.6094C135.063 23.6094 133.455 23.2222 132.086 22.4479C130.737 21.6735 129.908 20.6411 129.596 19.3505Z" fill="black"></path><path d="M154.693 19.9495C155.503 19.9495 156.475 19.7799 157.61 19.4406V22.7416C156.455 23.2361 155.037 23.4833 153.356 23.4833C151.502 23.4833 150.15 23.0373 149.299 22.1454C148.458 21.2438 148.038 19.8962 148.038 18.1027V11.1377H145.819V9.26179L148.372 7.77849L149.709 4.34654H152.672V7.80757H157.428V11.1377H152.672V18.1027C152.672 18.7328 152.854 19.1982 153.219 19.4987C153.594 19.7993 154.085 19.9495 154.693 19.9495Z" fill="black"></path><path d="M159.468 19.3505L163.482 18.1294C163.607 18.6655 163.908 19.2215 164.385 19.7973C164.841 20.3532 165.723 20.6312 167.03 20.6312C167.756 20.6312 168.326 20.4922 168.741 20.2142C169.177 19.9362 169.395 19.5788 169.395 19.142C169.395 18.7251 169.249 18.3975 168.959 18.1592C168.669 17.9011 168.171 17.7026 167.465 17.5636L165.256 17.1466C163.451 16.8091 162.134 16.3028 161.304 15.6277C160.495 14.9527 160.09 13.9301 160.09 12.5601C160.09 11.1306 160.692 9.98893 161.895 9.13517C163.098 8.28141 164.727 7.85453 166.781 7.85453C168.482 7.85453 169.892 8.19206 171.013 8.86713C172.154 9.54219 172.932 10.3463 173.347 11.2795L169.706 12.858C169.166 11.4681 168.119 10.7732 166.563 10.7732C165.858 10.7732 165.308 10.9023 164.914 11.1604C164.54 11.4185 164.354 11.7659 164.354 12.2028C164.354 12.6197 164.499 12.9374 164.789 13.1558C165.1 13.3543 165.671 13.5231 166.501 13.6621L168.648 14.0493C172.216 14.7045 174 16.2532 174 18.6953C174 20.2043 173.357 21.4055 172.071 22.299C170.785 23.1726 169.021 23.6094 166.781 23.6094C164.934 23.6094 163.327 23.2222 161.957 22.4479C160.609 21.6735 159.779 20.6411 159.468 19.3505Z" fill="black"></path><path fill-rule="evenodd" clip-rule="evenodd" d="M13.451 8.01229C13.2558 7.81703 12.9392 7.81703 12.7439 8.01229L10.7285 10.0277C10.5332 10.223 10.5332 10.5396 10.7285 10.7348L12.7439 12.7503C12.9392 12.9455 13.2558 12.9455 13.451 12.7503L15.4665 10.7348C15.6617 10.5396 15.6617 10.223 15.4665 10.0277L13.451 8.01229ZM11.4998 15C11.2237 15 10.9998 15.2238 10.9998 15.5V24.5C10.9998 24.7761 11.2237 25 11.4998 25H14.4998C14.776 25 14.9998 24.7761 14.9998 24.5V19.1363C14.9998 18.8602 15.2237 18.6363 15.4998 18.6363H16.4998C16.776 18.6363 16.9998 18.8602 16.9998 19.1363V22.6818C16.9998 22.9579 17.2237 23.1818 17.4998 23.1818H20.4998C20.776 23.1818 20.9998 22.9579 20.9998 22.6818V19.1363C20.9998 18.8602 21.2237 18.6363 21.4998 18.6363H24.4998C24.776 18.6363 24.9998 18.4125 24.9998 18.1363V15.5C24.9998 15.2238 24.776 15 24.4998 15H11.4998Z" fill="black"></path><path fill-rule="evenodd" clip-rule="evenodd" d="M13.2833 3.55704C13.0957 3.52621 12.9043 3.52621 12.7167 3.55704C12.5544 3.58371 12.3736 3.64849 11.4776 4.03475L5.85617 6.458C4.49864 7.0432 4.23894 7.18309 4.06711 7.34562C3.86726 7.53464 3.7142 7.76812 3.62019 8.02734C3.53936 8.25022 3.51382 8.54543 3.51382 10.031V16.5436C3.51382 17.7835 3.53235 18.0283 3.5922 18.2231C3.66158 18.4488 3.77525 18.6582 3.9265 18.839C4.05697 18.9949 4.2517 19.143 5.28868 19.8135L10.9101 23.4484C12.1228 24.2325 12.3768 24.3674 12.602 24.4201C12.8638 24.4814 13.1362 24.4814 13.398 24.4201C13.6232 24.3674 13.8772 24.2325 15.0899 23.4484L20.7113 19.8135C21.7483 19.143 21.943 18.9949 22.0735 18.839C22.2248 18.6582 22.3384 18.4488 22.4078 18.2231C22.4676 18.0283 22.4862 17.7835 22.4862 16.5436V10.031C22.4862 8.54543 22.4606 8.25022 22.3798 8.02734C22.2858 7.76812 22.1327 7.53464 21.9329 7.34562C21.7611 7.18309 21.5014 7.04319 20.1438 6.458L14.5224 4.03475C13.6264 3.64849 13.4456 3.58371 13.2833 3.55704ZM12.1502 0.069369C12.713 -0.023123 13.287 -0.023123 13.8498 0.069369C14.4906 0.174673 15.0887 0.433208 15.7673 0.726479C15.8132 0.74636 15.8596 0.766401 15.9064 0.786565L21.5278 3.20982C21.5999 3.24087 21.6713 3.27155 21.7422 3.30198C22.7602 3.73913 23.6547 4.12327 24.3397 4.77115C24.9393 5.33823 25.3985 6.03866 25.6805 6.81633C26.0027 7.70481 26.0013 8.68318 25.9998 9.79652C25.9997 9.87402 25.9996 9.95217 25.9996 10.031V16.5436C25.9996 16.6088 25.9997 16.6735 25.9997 16.7376C26.0008 17.672 26.0018 18.4946 25.7644 19.2669C25.5563 19.944 25.2153 20.5723 24.7616 21.1145C24.2441 21.733 23.5556 22.177 22.7736 22.6813C22.7199 22.7159 22.6658 22.7509 22.6112 22.7861L16.9898 26.421C16.9255 26.4626 16.8619 26.5038 16.7987 26.5448C15.89 27.1342 15.0911 27.6523 14.1939 27.8622C13.4085 28.0459 12.5915 28.0459 11.8061 27.8622C10.9089 27.6523 10.11 27.1342 9.20126 26.5448C9.13813 26.5038 9.07448 26.4626 9.01022 26.421L3.38878 22.7861C3.33422 22.7509 3.28009 22.7159 3.22639 22.6813C2.44438 22.177 1.75591 21.733 1.23844 21.1145C0.784702 20.5723 0.443682 19.944 0.235554 19.2669C-0.00180463 18.4946 -0.000831952 17.672 0.000273088 16.7376C0.00034898 16.6735 0.000425542 16.6088 0.000425542 16.5436V10.031C0.000425542 9.95218 0.000317316 9.87402 0.000210096 9.79652C-0.00133086 8.68318 -0.00268485 7.70481 0.319524 6.81633C0.601549 6.03866 1.06073 5.33823 1.66028 4.77115C2.34526 4.12328 3.23983 3.73913 4.25782 3.30199C4.32868 3.27156 4.40014 3.24087 4.47217 3.20982L10.0936 0.786565C10.1404 0.766402 10.1868 0.746361 10.2328 0.726479C10.9113 0.433209 11.5094 0.174673 12.1502 0.069369Z" fill="url(#paint0_linear)"></path><defs><linearGradient id="paint0_linear" x1="5.87089e-08" y1="6.4112" x2="25.6961" y2="6.45136" gradientUnits="userSpaceOnUse"><stop stop-color="#3C56EC"></stop><stop offset="0.990918" stop-color="#953EFF"></stop></linearGradient></defs></svg>